<svg xmlns="http://www.w3.org/2000/svg" width="186.111" height="60.233" viewBox="0 0 186.111 60.233">
  <g id="Grupo_120" data-name="Grupo 120" transform="translate(-846.154 -412.911)">
    <g id="Download_on_the_App_Store_Badge_US-UK_RGB_wht_092917" transform="translate(846.154 412.911)">
      <g id="Grupo_7" data-name="Grupo 7" transform="translate(0 0)">
        <g id="Grupo_5" data-name="Grupo 5">
          <path id="Trazado_34" data-name="Trazado 34" d="M171.29,0H14.829c-.57,0-1.134,0-1.7,0-.476,0-.949.012-1.429.019A21.21,21.21,0,0,0,8.581.288a10.605,10.605,0,0,0-2.956.944A10.005,10.005,0,0,0,3.107,3.007,9.443,9.443,0,0,0,1.274,5.448,9.721,9.721,0,0,0,.3,8.314a18.96,18.96,0,0,0-.279,3.015c-.014.462-.016.925-.024,1.387V47.521c.008.468.009.921.024,1.388A18.958,18.958,0,0,0,.3,51.924a9.7,9.7,0,0,0,.972,2.868,9.368,9.368,0,0,0,1.832,2.431A9.752,9.752,0,0,0,5.624,59a10.66,10.66,0,0,0,2.956.95,21.593,21.593,0,0,0,3.117.266c.481.01.953.016,1.429.016.569,0,1.132,0,1.7,0H171.29c.559,0,1.127,0,1.686,0,.474,0,.96-.006,1.434-.016a21.311,21.311,0,0,0,3.111-.266,10.826,10.826,0,0,0,2.968-.95A9.756,9.756,0,0,0,183,57.222a9.43,9.43,0,0,0,2.8-5.3,19.711,19.711,0,0,0,.289-3.014c.006-.468.006-.921.006-1.388.012-.547.012-1.091.012-1.647V14.36c0-.551,0-1.1-.012-1.644,0-.462,0-.925-.006-1.387a19.709,19.709,0,0,0-.289-3.015,9.743,9.743,0,0,0-.963-2.866,9.9,9.9,0,0,0-4.353-4.216,10.769,10.769,0,0,0-2.968-.944A20.936,20.936,0,0,0,174.41.022c-.474-.007-.96-.016-1.434-.019-.559,0-1.127,0-1.686,0Z" transform="translate(0 0)"/>
          <path id="Trazado_35" data-name="Trazado 35" d="M12.663,58.819c-.474,0-.937-.006-1.408-.016a20.292,20.292,0,0,1-2.91-.247,9.339,9.339,0,0,1-2.58-.83,8.411,8.411,0,0,1-2.175-1.54A8.075,8.075,0,0,1,2,54.07a8.5,8.5,0,0,1-.845-2.51A18.309,18.309,0,0,1,.9,48.719C.886,48.4.873,47.336.873,47.336V12.342S.887,11.294.9,10.987a18.245,18.245,0,0,1,.258-2.836A8.554,8.554,0,0,1,2,5.633,8.153,8.153,0,0,1,3.58,3.515,8.659,8.659,0,0,1,5.764,1.966a9.244,9.244,0,0,1,2.574-.824,20.128,20.128,0,0,1,2.92-.249l1.4-.018H172.678L174.1.894a19.808,19.808,0,0,1,2.894.246,9.427,9.427,0,0,1,2.6.83,8.6,8.6,0,0,1,3.76,3.666,8.564,8.564,0,0,1,.833,2.5,19.168,19.168,0,0,1,.271,2.859c0,.429,0,.89,0,1.348.012.568.012,1.109.012,1.654V45.7c0,.55,0,1.087-.012,1.629,0,.493,0,.944-.006,1.408a18.778,18.778,0,0,1-.266,2.808,8.528,8.528,0,0,1-.841,2.53,8.318,8.318,0,0,1-1.581,2.1,8.421,8.421,0,0,1-2.179,1.549,9.306,9.306,0,0,1-2.6.833,20.061,20.061,0,0,1-2.91.247c-.456.01-.934.016-1.4.016l-1.688,0Z" transform="translate(0.381 0.269)" fill="#fff"/>
        </g>
        <g id="_Group_" data-name="&lt;Group&gt;" transform="translate(13.803 14.598)">
          <g id="_Group_2" data-name="&lt;Group&gt;">
            <g id="_Group_3" data-name="&lt;Group&gt;">
              <path id="_Path_" data-name="&lt;Path&gt;" d="M31.712,21.912a6.629,6.629,0,0,1,3.52-5.645,7.79,7.79,0,0,0-5.962-2.933c-2.508-.24-4.94,1.366-6.218,1.366-1.3,0-3.271-1.342-5.39-1.3a8.072,8.072,0,0,0-6.681,3.708c-2.889,4.552-.734,11.242,2.033,14.922,1.385,1.8,3,3.814,5.12,3.743,2.072-.078,2.846-1.2,5.347-1.2,2.478,0,3.2,1.2,5.364,1.157,2.223-.033,3.624-1.81,4.96-3.629a14.4,14.4,0,0,0,2.268-4.2,6.521,6.521,0,0,1-4.361-5.981Z" transform="translate(-9.609 -6.168)"/>
              <path id="_Path_2" data-name="&lt;Path&gt;" d="M23.63,12.592a6.239,6.239,0,0,0,1.665-4.745A7.668,7.668,0,0,0,20.5,10.1a5.957,5.957,0,0,0-1.708,4.57A6.374,6.374,0,0,0,23.63,12.592Z" transform="translate(-5.607 -7.847)"/>
            </g>
          </g>
          <g id="Grupo_6" data-name="Grupo 6" transform="translate(49.871 13.105)">
            <path id="Trazado_36" data-name="Trazado 36" d="M45.739,29.925h-6.8l-1.633,4.388h-2.88l6.44-16.234h2.992L50.3,34.313H47.37ZM39.644,27.9h5.389l-2.657-7.121H42.3Z" transform="translate(-34.427 -17.807)"/>
            <path id="Trazado_37" data-name="Trazado 37" d="M58.881,27.391c0,3.678-2.163,6.041-5.427,6.041a4.516,4.516,0,0,1-4.092-2.071H49.3v5.863H46.631V21.472h2.584v1.969h.049A4.729,4.729,0,0,1,53.4,21.348C56.706,21.348,58.881,23.723,58.881,27.391Zm-2.744,0c0-2.4-1.361-3.972-3.437-3.972-2.04,0-3.412,1.609-3.412,3.972,0,2.385,1.372,3.982,3.412,3.982,2.076,0,3.437-1.564,3.437-3.982Z" transform="translate(-29.101 -16.803)"/>
            <path id="Trazado_38" data-name="Trazado 38" d="M68.847,27.391c0,3.678-2.164,6.041-5.428,6.041a4.516,4.516,0,0,1-4.092-2.071h-.062v5.863H56.6V21.472H59.18v1.969h.049a4.729,4.729,0,0,1,4.141-2.092C66.67,21.348,68.847,23.723,68.847,27.391Zm-2.744,0c0-2.4-1.361-3.972-3.437-3.972-2.04,0-3.412,1.609-3.412,3.972,0,2.385,1.372,3.982,3.412,3.982,2.076,0,3.437-1.564,3.437-3.982Z" transform="translate(-24.752 -16.803)"/>
            <path id="Trazado_39" data-name="Trazado 39" d="M72.54,29.853c.2,1.61,1.916,2.667,4.264,2.667,2.25,0,3.869-1.057,3.869-2.509,0-1.26-.976-2.015-3.288-2.532l-2.312-.507c-3.275-.72-4.8-2.114-4.8-4.376,0-2.8,2.682-4.725,6.489-4.725,3.771,0,6.355,1.924,6.441,4.725H80.513c-.161-1.62-1.633-2.6-3.783-2.6s-3.622.989-3.622,2.43c0,1.148.94,1.823,3.239,2.34l1.965.439c3.66.788,5.179,2.126,5.179,4.5,0,3.037-2.657,4.939-6.885,4.939-3.956,0-6.627-1.858-6.8-4.794Z" transform="translate(-18.986 -17.871)"/>
            <path id="Trazado_40" data-name="Trazado 40" d="M84.736,19.3v2.8h2.473v1.924H84.736V30.55c0,1.014.5,1.486,1.582,1.486q.44-.007.878-.056v1.912A8.037,8.037,0,0,1,85.713,34c-2.633,0-3.66-.9-3.66-3.2V24.025H80.163V22.1h1.891V19.3Z" transform="translate(-14.467 -17.432)"/>
            <path id="Trazado_41" data-name="Trazado 41" d="M86.064,27.4c0-3.724,2.41-6.064,6.168-6.064S98.4,23.671,98.4,27.4s-2.386,6.064-6.169,6.064S86.064,31.13,86.064,27.4Zm9.617,0c0-2.555-1.286-4.062-3.449-4.062s-3.449,1.519-3.449,4.062c0,2.565,1.286,4.061,3.449,4.061s3.449-1.5,3.449-4.061Z" transform="translate(-11.891 -16.808)"/>
            <path id="Trazado_42" data-name="Trazado 42" d="M96.185,21.472h2.546v2.015h.062a3.074,3.074,0,0,1,3.128-2.138,4.508,4.508,0,0,1,.915.091v2.272a4.077,4.077,0,0,0-1.2-.147,2.829,2.829,0,0,0-2.079.779,2.312,2.312,0,0,0-.7,1.944v7.02H96.185Z" transform="translate(-7.474 -16.803)"/>
            <path id="Trazado_43" data-name="Trazado 43" d="M112.947,29.836c-.359,2.149-2.658,3.623-5.6,3.623-3.783,0-6.131-2.307-6.131-6.008s2.361-6.12,6.019-6.12c3.6,0,5.861,2.25,5.861,5.838V28h-9.185v.147a2.92,2.92,0,0,0,.918,2.395,3.565,3.565,0,0,0,2.581.958,2.982,2.982,0,0,0,3-1.665ZM103.923,26.3h6.5a2.706,2.706,0,0,0-.874-2.136,3.291,3.291,0,0,0-2.316-.868,3.466,3.466,0,0,0-2.344.874,2.866,2.866,0,0,0-.968,2.13Z" transform="translate(-5.278 -16.808)"/>
          </g>
        </g>
      </g>
      <g id="_Group_4" data-name="&lt;Group&gt;" transform="translate(65.461 13.021)">
        <g id="Grupo_8" data-name="Grupo 8">
          <path id="Trazado_44" data-name="Trazado 44" d="M38.767,8.733A4,4,0,0,1,41.791,9.8,3.26,3.26,0,0,1,42.8,12.609c0,2.492-1.48,3.925-4.033,3.925h-3.1v-7.8ZM37,15.431h1.616a2.836,2.836,0,0,0,2.147-.791,2.31,2.31,0,0,0,.68-2.015,2.318,2.318,0,0,0-.691-2,2.843,2.843,0,0,0-2.136-.788H37Z" transform="translate(-35.671 -8.349)"/>
          <path id="Trazado_45" data-name="Trazado 45" d="M41.685,13.162a2.717,2.717,0,0,1,1.435-2.635,3.323,3.323,0,0,1,3.231,0,2.717,2.717,0,0,1,1.435,2.635,2.717,2.717,0,0,1-1.433,2.64,3.324,3.324,0,0,1-3.235,0,2.717,2.717,0,0,1-1.433-2.64Zm4.788,0c0-1.276-.63-2.022-1.735-2.022S43,11.886,43,13.162s.624,2.027,1.734,2.027S46.473,14.444,46.473,13.162Z" transform="translate(-33.052 -7.923)"/>
          <path id="Trazado_46" data-name="Trazado 46" d="M53.757,16.082H52.433L51.1,11.746H51l-1.331,4.336H48.352l-1.783-5.887h1.295l1.159,4.492h.1l1.33-4.492h1.225L53,14.687h.1l1.153-4.492h1.277Z" transform="translate(-30.915 -7.897)"/>
          <path id="Trazado_47" data-name="Trazado 47" d="M53.853,10.223h1.229v.935h.1a1.967,1.967,0,0,1,1.93-1.049,2.218,2.218,0,0,1,1.7.6,1.8,1.8,0,0,1,.541,1.585V16.11H58.07V12.591a1.237,1.237,0,0,0-1.4-1.416,1.562,1.562,0,0,0-1.149.423,1.277,1.277,0,0,0-.4,1.069V16.11H53.854Z" transform="translate(-27.736 -7.925)"/>
          <path id="Trazado_48" data-name="Trazado 48" d="M59.094,8.437H60.37v8.185H59.094Z" transform="translate(-25.449 -8.437)"/>
          <path id="Trazado_49" data-name="Trazado 49" d="M61.222,13.162a2.718,2.718,0,0,1,1.435-2.635,3.324,3.324,0,0,1,3.232,0,2.718,2.718,0,0,1,1.435,2.635A2.718,2.718,0,0,1,65.89,15.8a3.324,3.324,0,0,1-3.235,0,2.718,2.718,0,0,1-1.433-2.64Zm4.788,0c0-1.276-.63-2.022-1.735-2.022s-1.734.746-1.734,2.022.624,2.027,1.734,2.027S66.01,14.444,66.01,13.162Z" transform="translate(-24.526 -7.924)"/>
          <path id="Trazado_50" data-name="Trazado 50" d="M66.4,14.444c0-1.06.867-1.671,2.406-1.757l1.752-.092v-.508c0-.622-.452-.973-1.324-.973-.713,0-1.206.238-1.348.654H66.651c.13-1.011,1.176-1.66,2.643-1.66,1.622,0,2.536.735,2.536,1.978v4.022H70.6v-.827h-.1a2.243,2.243,0,0,1-1.943.924,2.081,2.081,0,0,1-1.508-.446,1.712,1.712,0,0,1-.649-1.316Zm4.158-.5v-.492l-1.58.092c-.891.054-1.295.33-1.295.849s.5.838,1.2.838a1.628,1.628,0,0,0,1.137-.32,1.35,1.35,0,0,0,.538-.967Z" transform="translate(-22.26 -7.923)"/>
          <path id="Trazado_51" data-name="Trazado 51" d="M71.348,13.676c0-1.86,1.051-3.039,2.685-3.039a2.178,2.178,0,0,1,1.984,1.033h.1V8.437h1.276v8.185H76.165v-.93h-.1a2.3,2.3,0,0,1-2.031,1.027C72.388,16.719,71.348,15.54,71.348,13.676Zm1.319,0c0,1.249.647,2,1.728,2s1.741-.762,1.741-1.995-.672-2-1.741-2-1.728.757-1.728,1.995Z" transform="translate(-20.1 -8.437)"/>
          <path id="Trazado_52" data-name="Trazado 52" d="M79.234,13.162a2.717,2.717,0,0,1,1.435-2.635,3.323,3.323,0,0,1,3.231,0,2.717,2.717,0,0,1,1.435,2.635A2.717,2.717,0,0,1,83.9,15.8a3.324,3.324,0,0,1-3.235,0,2.717,2.717,0,0,1-1.433-2.64Zm4.788,0c0-1.276-.63-2.022-1.735-2.022s-1.734.746-1.734,2.022.624,2.027,1.734,2.027S84.022,14.443,84.022,13.162Z" transform="translate(-16.665 -7.923)"/>
          <path id="Trazado_53" data-name="Trazado 53" d="M84.669,10.223H85.9v.935h.1a1.967,1.967,0,0,1,1.93-1.049,2.218,2.218,0,0,1,1.7.6,1.8,1.8,0,0,1,.541,1.585V16.11H88.886V12.591a1.237,1.237,0,0,0-1.4-1.416,1.562,1.562,0,0,0-1.149.423,1.277,1.277,0,0,0-.4,1.069V16.11H84.669Z" transform="translate(-14.287 -7.925)"/>
          <path id="Trazado_54" data-name="Trazado 54" d="M94.215,9.074v1.492h1.4v.979h-1.4v3.027c0,.617.279.887.915.887a4.677,4.677,0,0,0,.487-.027V16.4a4.59,4.59,0,0,1-.694.059c-1.42,0-1.985-.455-1.985-1.589V11.545H91.911v-.979h1.027V9.074Z" transform="translate(-11.126 -8.241)"/>
          <path id="Trazado_55" data-name="Trazado 55" d="M95.7,8.437H96.97v3.244h.1a2.026,2.026,0,0,1,1.972-1.055,2.242,2.242,0,0,1,1.681.62,1.829,1.829,0,0,1,.547,1.574v3.8H99.993V13.108a1.247,1.247,0,0,0-1.383-1.416,1.6,1.6,0,0,0-1.2.4,1.306,1.306,0,0,0-.433,1.091v3.438H95.7Z" transform="translate(-9.471 -8.437)"/>
          <path id="Trazado_56" data-name="Trazado 56" d="M106.529,14.519a2.634,2.634,0,0,1-2.8,1.7,3.08,3.08,0,0,1-2.266-.89,2.517,2.517,0,0,1-.721-2.149,2.555,2.555,0,0,1,.72-2.157,3.121,3.121,0,0,1,2.262-.918,2.7,2.7,0,0,1,2.885,2.968v.405h-4.567v.065a1.473,1.473,0,0,0,.451,1.19,1.794,1.794,0,0,0,1.271.5,1.6,1.6,0,0,0,1.539-.714Zm-4.49-1.9h3.267a1.347,1.347,0,0,0-.425-1.083,1.641,1.641,0,0,0-1.167-.442,1.742,1.742,0,0,0-1.191.441,1.439,1.439,0,0,0-.484,1.084Z" transform="translate(-7.286 -7.923)"/>
        </g>
      </g>
    </g>
  </g>
</svg>
