<svg xmlns="http://www.w3.org/2000/svg" width="208.085" height="69.556" viewBox="0 0 208.085 69.556">
  <g id="Download_on_the_App_Store_Badge_US-UK_RGB_wht_092917" transform="translate(0)">
    <g id="Grupo_7" data-name="Grupo 7" transform="translate(0)">
      <g id="Grupo_5" data-name="Grupo 5">
        <path id="Trazado_34" data-name="Trazado 34" d="M191.515,0H16.58c-.638,0-1.268,0-1.9,0-.532,0-1.06.014-1.6.022A22.979,22.979,0,0,0,9.594.333a11.59,11.59,0,0,0-3.305,1.09,11.2,11.2,0,0,0-2.815,2.05A10.883,10.883,0,0,0,1.425,6.292,11.479,11.479,0,0,0,.338,9.6a22.594,22.594,0,0,0-.312,3.481c-.016.533-.018,1.068-.026,1.6V54.877c.009.54.01,1.063.026,1.6a22.592,22.592,0,0,0,.312,3.481,11.455,11.455,0,0,0,1.087,3.311A10.8,10.8,0,0,0,3.474,66.08a10.911,10.911,0,0,0,2.815,2.05,11.652,11.652,0,0,0,3.305,1.1,23.4,23.4,0,0,0,3.485.307c.537.012,1.066.019,1.6.019.636,0,1.266,0,1.9,0H191.515c.625,0,1.26,0,1.885,0,.53,0,1.073-.007,1.6-.019a23.09,23.09,0,0,0,3.478-.307,11.832,11.832,0,0,0,3.318-1.1,10.916,10.916,0,0,0,2.812-2.05,11.121,11.121,0,0,0,2.055-2.807,11.484,11.484,0,0,0,1.077-3.311,23.488,23.488,0,0,0,.323-3.481c.007-.54.007-1.063.007-1.6.014-.632.014-1.26.014-1.9V16.583c0-.637,0-1.269-.014-1.9,0-.533,0-1.068-.007-1.6a23.488,23.488,0,0,0-.323-3.481,11.508,11.508,0,0,0-1.077-3.31A11.244,11.244,0,0,0,201.8,1.423,11.768,11.768,0,0,0,198.48.333,22.682,22.682,0,0,0,195,.025c-.53-.008-1.073-.019-1.6-.022-.625,0-1.26,0-1.885,0Z" transform="translate(0 0)"/>
        <path id="Trazado_35" data-name="Trazado 35" d="M14.04,67.388c-.53,0-1.047-.007-1.572-.019a22.062,22.062,0,0,1-3.25-.284,10.232,10.232,0,0,1-2.881-.953,9.4,9.4,0,0,1-2.429-1.768,9.252,9.252,0,0,1-1.775-2.428,9.95,9.95,0,0,1-.944-2.882,21.586,21.586,0,0,1-.29-3.26c-.011-.367-.025-1.588-.025-1.588V14.037s.015-1.2.026-1.556a21.511,21.511,0,0,1,.288-3.255,10.008,10.008,0,0,1,.945-2.89A9.344,9.344,0,0,1,3.9,3.905,9.678,9.678,0,0,1,6.335,2.127,10.126,10.126,0,0,1,9.21,1.182,21.885,21.885,0,0,1,12.472.9L14.041.875H192.746L194.334.9a21.536,21.536,0,0,1,3.232.283,10.326,10.326,0,0,1,2.906.953,9.727,9.727,0,0,1,4.2,4.208,10.021,10.021,0,0,1,.931,2.867,22.6,22.6,0,0,1,.3,3.282c.005.492.005,1.021.005,1.548.014.652.014,1.273.014,1.9V52.329c0,.632,0,1.248-.014,1.87,0,.565,0,1.084-.007,1.617a22.145,22.145,0,0,1-.3,3.223,9.98,9.98,0,0,1-.939,2.9,9.53,9.53,0,0,1-1.766,2.41,9.412,9.412,0,0,1-2.433,1.778,10.193,10.193,0,0,1-2.9.956,21.81,21.81,0,0,1-3.25.284c-.509.012-1.043.019-1.561.019l-1.885,0Z" transform="translate(0.645 0.647)" fill="#fff"/>
      </g>
      <g id="_Group_" data-name="&lt;Group&gt;" transform="translate(16.709 13.645)">
        <g id="_Group_2" data-name="&lt;Group&gt;">
          <g id="_Group_3" data-name="&lt;Group&gt;">
            <path id="_Path_" data-name="&lt;Path&gt;" d="M36.367,24.751a8.949,8.949,0,0,1,4.261-7.508,9.16,9.16,0,0,0-7.217-3.9c-3.037-.319-5.98,1.817-7.528,1.817-1.577,0-3.96-1.785-6.525-1.733a9.612,9.612,0,0,0-8.088,4.933c-3.5,6.055-.889,14.954,2.461,19.848,1.676,2.4,3.635,5.074,6.2,4.979,2.508-.1,3.445-1.6,6.473-1.6,3,0,3.878,1.6,6.494,1.539,2.691-.044,4.387-2.407,6-4.827a19.822,19.822,0,0,0,2.746-5.592,8.647,8.647,0,0,1-5.279-7.955Z" transform="translate(-9.609 -3.811)"/>
            <path id="_Path_2" data-name="&lt;Path&gt;" d="M24.651,14.159a8.811,8.811,0,0,0,2.015-6.312,8.964,8.964,0,0,0-5.8,3A8.384,8.384,0,0,0,18.8,16.926,7.412,7.412,0,0,0,24.651,14.159Z" transform="translate(-2.833 -7.847)"/>
          </g>
        </g>
        <g id="Grupo_6" data-name="Grupo 6" transform="translate(43.156 17.431)">
          <path id="Trazado_36" data-name="Trazado 36" d="M48.121,33.835H39.89l-1.977,5.837H34.427l7.8-21.594h3.622l7.8,21.594H50.1Zm-7.378-2.693h6.524L44.05,21.67h-.09Z" transform="translate(-34.427 -17.718)"/>
          <path id="Trazado_37" data-name="Trazado 37" d="M61.461,29.386c0,4.892-2.619,8.036-6.57,8.036a5.337,5.337,0,0,1-4.954-2.754h-.075v7.8H46.631V21.514h3.128v2.619h.059a5.585,5.585,0,0,1,5.013-2.783C58.827,21.349,61.461,24.508,61.461,29.386Zm-3.322,0c0-3.187-1.647-5.283-4.16-5.283-2.469,0-4.13,2.14-4.13,5.283,0,3.172,1.661,5.3,4.13,5.3,2.513,0,4.16-2.08,4.16-5.3Z" transform="translate(-25.409 -15.303)"/>
          <path id="Trazado_38" data-name="Trazado 38" d="M71.427,29.386c0,4.892-2.619,8.036-6.571,8.036A5.337,5.337,0,0,1,59.9,34.667h-.075v7.8H56.6V21.514h3.128v2.619h.059A5.585,5.585,0,0,1,64.8,21.349C68.792,21.349,71.427,24.508,71.427,29.386Zm-3.322,0c0-3.187-1.647-5.283-4.16-5.283-2.469,0-4.13,2.14-4.13,5.283,0,3.172,1.661,5.3,4.13,5.3,2.513,0,4.161-2.08,4.161-5.3Z" transform="translate(-18.046 -15.303)"/>
          <path id="Trazado_39" data-name="Trazado 39" d="M73.115,33.808c.239,2.141,2.32,3.547,5.162,3.547,2.724,0,4.683-1.406,4.683-3.337,0-1.676-1.182-2.68-3.98-3.367l-2.8-.674c-3.965-.958-5.806-2.812-5.806-5.821,0-3.726,3.247-6.285,7.856-6.285,4.565,0,7.693,2.559,7.8,6.285H82.767c-.2-2.155-1.977-3.456-4.58-3.456S73.8,22.016,73.8,23.932c0,1.527,1.138,2.425,3.921,3.113l2.379.584c4.43,1.048,6.27,2.827,6.27,5.986,0,4.04-3.216,6.57-8.335,6.57-4.789,0-8.022-2.471-8.231-6.377Z" transform="translate(-8.284 -17.871)"/>
          <path id="Trazado_40" data-name="Trazado 40" d="M85.7,19.3v3.726h2.994v2.559H85.7v8.679c0,1.348.6,1.977,1.916,1.977a10.1,10.1,0,0,0,1.063-.075V38.71a8.874,8.874,0,0,1-1.795.149c-3.187,0-4.43-1.2-4.43-4.25V25.585H80.163V23.026h2.289V19.3Z" transform="translate(-0.632 -16.815)"/>
          <path id="Trazado_41" data-name="Trazado 41" d="M86.064,29.4c0-4.953,2.917-8.066,7.467-8.066C98.1,21.331,101,24.444,101,29.4s-2.889,8.066-7.468,8.066S86.064,34.364,86.064,29.4Zm11.643,0c0-3.4-1.557-5.4-4.176-5.4s-4.176,2.021-4.176,5.4c0,3.412,1.557,5.4,4.176,5.4s4.176-1.99,4.176-5.4Z" transform="translate(3.728 -15.314)"/>
          <path id="Trazado_42" data-name="Trazado 42" d="M96.185,21.514h3.082v2.68h.075a3.755,3.755,0,0,1,3.787-2.844,4.984,4.984,0,0,1,1.107.121v3.023a4.518,4.518,0,0,0-1.452-.2,3.256,3.256,0,0,0-3.367,3.622v9.338H96.185Z" transform="translate(11.207 -15.303)"/>
          <path id="Trazado_43" data-name="Trazado 43" d="M115.418,32.644c-.435,2.858-3.218,4.819-6.779,4.819-4.58,0-7.423-3.069-7.423-7.991,0-4.938,2.858-8.141,7.287-8.141,4.356,0,7.095,2.992,7.095,7.766V30.2H104.478v.2a4.1,4.1,0,0,0,4.235,4.459,3.562,3.562,0,0,0,3.636-2.214Zm-10.924-4.7h7.871a3.786,3.786,0,0,0-3.862-4,3.986,3.986,0,0,0-4.009,4Z" transform="translate(14.924 -15.314)"/>
        </g>
      </g>
    </g>
    <g id="_Group_4" data-name="&lt;Group&gt;" transform="translate(62.028 14.671)">
      <g id="Grupo_8" data-name="Grupo 8">
        <path id="Trazado_44" data-name="Trazado 44" d="M39.419,8.736A4.59,4.59,0,0,1,44.3,13.892c0,3.315-1.792,5.22-4.882,5.22H35.671V8.736Zm-2.136,8.908h1.956a3.262,3.262,0,0,0,3.422-3.732,3.271,3.271,0,0,0-3.422-3.71H37.282Z" transform="translate(-35.671 -8.225)"/>
        <path id="Trazado_45" data-name="Trazado 45" d="M41.688,14.171a3.709,3.709,0,1,1,7.385,0,3.71,3.71,0,1,1-7.385,0Zm5.8,0c0-1.7-.762-2.69-2.1-2.69s-2.1.993-2.1,2.69.756,2.7,2.1,2.7S47.484,15.875,47.484,14.171Z" transform="translate(-31.238 -7.202)"/>
        <path id="Trazado_46" data-name="Trazado 46" d="M55.271,18.025h-1.6l-1.618-5.767h-.122l-1.612,5.767H48.728l-2.158-7.83h1.567l1.4,5.975h.115l1.61-5.975h1.482l1.61,5.975h.122l1.4-5.975h1.545Z" transform="translate(-27.618 -7.138)"/>
        <path id="Trazado_47" data-name="Trazado 47" d="M53.854,10.262h1.488v1.244h.115a2.344,2.344,0,0,1,2.337-1.4,2.547,2.547,0,0,1,2.71,2.912v5.069H58.958V13.412c0-1.258-.547-1.884-1.69-1.884a1.8,1.8,0,0,0-1.87,1.984v4.581H53.854Z" transform="translate(-22.236 -7.206)"/>
        <path id="Trazado_48" data-name="Trazado 48" d="M59.094,8.437h1.545V19.324H59.094Z" transform="translate(-18.364 -8.437)"/>
        <path id="Trazado_49" data-name="Trazado 49" d="M61.225,14.171a3.71,3.71,0,1,1,7.386,0,3.71,3.71,0,1,1-7.386,0Zm5.8,0c0-1.7-.762-2.69-2.1-2.69s-2.1.993-2.1,2.69.756,2.7,2.1,2.7S67.021,15.875,67.021,14.171Z" transform="translate(-16.802 -7.202)"/>
        <path id="Trazado_50" data-name="Trazado 50" d="M66.4,15.875c0-1.409,1.049-2.222,2.912-2.338l2.121-.122v-.676c0-.827-.547-1.294-1.6-1.294-.863,0-1.46.317-1.632.87H66.7c.158-1.345,1.423-2.208,3.2-2.208,1.963,0,3.07.977,3.07,2.631v5.35H71.485v-1.1h-.122a2.634,2.634,0,0,1-2.352,1.229,2.365,2.365,0,0,1-2.61-2.343Zm5.033-.669v-.655l-1.912.122c-1.078.072-1.567.439-1.567,1.129s.611,1.115,1.452,1.115a1.846,1.846,0,0,0,2.027-1.712Z" transform="translate(-12.964 -7.202)"/>
        <path id="Trazado_51" data-name="Trazado 51" d="M71.348,15.405c0-2.474,1.272-4.042,3.25-4.042A2.581,2.581,0,0,1,77,12.737h.115v-4.3H78.66V19.324H77.18V18.087h-.122A2.718,2.718,0,0,1,74.6,19.453C72.606,19.453,71.348,17.886,71.348,15.405Zm1.6,0c0,1.661.783,2.66,2.092,2.66s2.107-1.014,2.107-2.653-.813-2.66-2.107-2.66-2.092,1.006-2.092,2.653Z" transform="translate(-9.309 -8.437)"/>
        <path id="Trazado_52" data-name="Trazado 52" d="M79.237,14.171a3.709,3.709,0,1,1,7.385,0,3.71,3.71,0,1,1-7.385,0Zm5.8,0c0-1.7-.762-2.69-2.1-2.69s-2.1.993-2.1,2.69.756,2.7,2.1,2.7S85.033,15.875,85.033,14.171Z" transform="translate(-3.492 -7.202)"/>
        <path id="Trazado_53" data-name="Trazado 53" d="M84.669,10.262h1.488v1.244h.115a2.344,2.344,0,0,1,2.337-1.4,2.547,2.547,0,0,1,2.71,2.912v5.069H89.774V13.412c0-1.258-.547-1.884-1.69-1.884a1.8,1.8,0,0,0-1.87,1.984v4.581H84.669Z" transform="translate(0.534 -7.206)"/>
        <path id="Trazado_54" data-name="Trazado 54" d="M94.7,9.074v1.985h1.7v1.3H94.7v4.026c0,.82.338,1.179,1.107,1.179a5.158,5.158,0,0,0,.589-.036v1.287a5.069,5.069,0,0,1-.841.079c-1.719,0-2.4-.6-2.4-2.114V12.36H91.911v-1.3h1.243V9.074Z" transform="translate(5.885 -7.967)"/>
        <path id="Trazado_55" data-name="Trazado 55" d="M95.7,8.437h1.532v4.315h.122a2.409,2.409,0,0,1,2.387-1.4,2.579,2.579,0,0,1,2.7,2.919v5.055H100.9V14.65c0-1.251-.583-1.884-1.674-1.884a1.829,1.829,0,0,0-1.972,1.985v4.573H95.7Z" transform="translate(8.688 -8.437)"/>
        <path id="Trazado_56" data-name="Trazado 56" d="M107.754,15.975a3.179,3.179,0,0,1-3.393,2.265,3.557,3.557,0,0,1-3.617-4.041,3.611,3.611,0,0,1,3.61-4.091c2.179,0,3.493,1.489,3.493,3.947v.539h-5.529v.087a2.07,2.07,0,0,0,2.085,2.243,1.877,1.877,0,0,0,1.863-.949Zm-5.436-2.523h3.955a1.889,1.889,0,0,0-1.927-2.028,2,2,0,0,0-2.028,2.029Z" transform="translate(12.388 -7.202)"/>
      </g>
    </g>
  </g>
</svg>
