<svg id="check-all" xmlns="http://www.w3.org/2000/svg" width="11.7" height="10.055" viewBox="0 0 11.7 10.055">
  <path id="Trazado_116" data-name="Trazado 116" d="M2.7,9.172,0,6.145l.763-.838L2.8,6.7,8.648,0l.763.559L3.472,9.12a.479.479,0,0,1-.712.106A.543.543,0,0,1,2.7,9.172Z" fill="#70706f"/>
  <path id="Trazado_117" data-name="Trazado 117" d="M1.526.559H.254A.268.268,0,0,1,0,.279.268.268,0,0,1,.254,0H1.526A.268.268,0,0,1,1.78.279.268.268,0,0,1,1.526.559Z" transform="translate(9.919 1.955)" fill="#70706f"/>
  <path id="Trazado_118" data-name="Trazado 118" d="M3.306.559H.254A.268.268,0,0,1,0,.279.268.268,0,0,1,.254,0H3.306a.268.268,0,0,1,.254.279A.268.268,0,0,1,3.306.559Z" transform="translate(8.139 4.469)" fill="#70706f"/>
  <path id="Trazado_119" data-name="Trazado 119" d="M5.087.559H.254A.268.268,0,0,1,0,.279.268.268,0,0,1,.254,0H5.087a.268.268,0,0,1,.254.279A.268.268,0,0,1,5.087.559Z" transform="translate(6.359 6.982)" fill="#70706f"/>
  <path id="Trazado_120" data-name="Trazado 120" d="M6.867.559H.254A.268.268,0,0,1,0,.279.268.268,0,0,1,.254,0H6.867a.268.268,0,0,1,.254.279A.268.268,0,0,1,6.867.559Z" transform="translate(4.578 9.496)" fill="#70706f"/>
</svg>
