<svg id="check-all" xmlns="http://www.w3.org/2000/svg" width="11.7" height="9.156" viewBox="0 0 11.7 9.156">
  <path id="Trazado_116" data-name="Trazado 116" d="M2.7,8.353,0,5.6l.763-.763L2.8,6.1,8.648,0l.763.509-5.939,7.8a.509.509,0,0,1-.712.1A.524.524,0,0,1,2.7,8.353Z" fill="#78d478"/>
  <path id="Trazado_117" data-name="Trazado 117" d="M1.526.509H.254A.254.254,0,0,1,.254,0H1.526a.254.254,0,0,1,0,.509Z" transform="translate(9.919 1.78)" fill="#aeaeae"/>
  <path id="Trazado_118" data-name="Trazado 118" d="M3.306.509H.254A.254.254,0,0,1,.254,0H3.306a.254.254,0,1,1,0,.509Z" transform="translate(8.139 4.07)" fill="#aeaeae"/>
  <path id="Trazado_119" data-name="Trazado 119" d="M5.087.509H.254A.254.254,0,1,1,.254,0H5.087a.254.254,0,0,1,0,.509Z" transform="translate(6.359 6.359)" fill="#aeaeae"/>
  <path id="Trazado_120" data-name="Trazado 120" d="M6.867.509H.254A.254.254,0,0,1,.254,0H6.867a.254.254,0,0,1,0,.509Z" transform="translate(4.578 8.648)" fill="#aeaeae"/>
</svg>
