<svg xmlns="http://www.w3.org/2000/svg" xmlns:xlink="http://www.w3.org/1999/xlink" width="223.886" height="224.298" viewBox="0 0 223.886 224.298">
  <defs>
    <linearGradient id="linear-gradient" y1="0.5" x2="1" y2="0.5" gradientUnits="objectBoundingBox">
      <stop offset="0.06" stop-color="#78ffd5"/>
      <stop offset="0.11" stop-color="#71e9d2"/>
      <stop offset="0.24" stop-color="#61b6cc"/>
      <stop offset="0.36" stop-color="#5592c8"/>
      <stop offset="0.45" stop-color="#4e7bc5"/>
      <stop offset="0.51" stop-color="#4b73c4"/>
      <stop offset="0.57" stop-color="#4d7ac5"/>
      <stop offset="0.65" stop-color="#548ec7"/>
      <stop offset="0.75" stop-color="#5eaecb"/>
      <stop offset="0.86" stop-color="#6cdad1"/>
      <stop offset="0.95" stop-color="#78ffd5"/>
    </linearGradient>
    <radialGradient id="radial-gradient" cx="0.5" cy="0.5" r="0.5" gradientUnits="objectBoundingBox">
      <stop offset="0.15" stop-color="#78ffd5"/>
      <stop offset="0.26" stop-color="#76fad4"/>
      <stop offset="0.4" stop-color="#72ecd3"/>
      <stop offset="0.55" stop-color="#6ad4d0"/>
      <stop offset="0.71" stop-color="#60b3cc"/>
      <stop offset="0.87" stop-color="#5289c7"/>
      <stop offset="0.95" stop-color="#4b73c4"/>
    </radialGradient>
  </defs>
  <g id="Layer_2" data-name="Layer 2" transform="translate(0.001)">
    <g id="Layer_1" data-name="Layer 1" transform="translate(-0.001)">
      <path id="Trazado_1" data-name="Trazado 1" d="M170.032,192.152a27.762,27.762,0,0,1-26.582-35.769l1.873-6.217,1.867,6.217a23.858,23.858,0,0,0,45.685,0l1.873-6.223,1.873,6.223a27.779,27.779,0,0,1-26.588,35.769Zm-23.811-28.443v.681a23.852,23.852,0,0,0,47.7,0v-.681a27.75,27.75,0,0,1-47.687,0Z" transform="translate(-58.749 -62.122)" fill="url(#linear-gradient)"/>
      <path id="Trazado_2" data-name="Trazado 2" d="M221.4,110.065h-42a67.118,67.118,0,0,0-19.5-45.121l28-30.116a2.445,2.445,0,1,0-3.581-3.329L156.327,61.6a67.083,67.083,0,0,0-41.793-16.561V2.522a2.448,2.448,0,0,0-4.89,0V45.037A67.071,67.071,0,0,0,68.1,61.375L39.709,30.225a2.451,2.451,0,0,0-3.61,3.317L64.523,64.721a67.183,67.183,0,0,0-19.743,45.368H2.442a2.442,2.442,0,1,0,0,4.884h42.35a67.159,67.159,0,0,0,20.723,45.961c-.7.728-1.4,1.444-2.113,2.16l-.517.522c-7.632,7.661-18.017,18.146-29.646,15.569-6.933-1.538-9.023-6.105-9.651-8.688a12.845,12.845,0,0,1,4.368-12.768c3.258-2.712,9.246-3.393,12.093-.194a4.737,4.737,0,0,1,1.239,4.109,6.3,6.3,0,0,1-3.34,4.3,2.444,2.444,0,1,0,2.3,4.315,11.207,11.207,0,0,0,5.871-7.749,9.592,9.592,0,0,0-2.4-8.219c-4.831-5.424-13.825-4.514-18.874-.305a17.758,17.758,0,0,0-5.988,17.67c1.526,6.282,6.387,10.767,13.338,12.328a22.225,22.225,0,0,0,4.82.528c12.058,0,21.921-9.939,29.353-17.424l.522-.528q1.174-1.174,2.3-2.348a67.042,67.042,0,0,0,40.507,15.44v42.515a2.448,2.448,0,0,0,4.89,0V179.637a67,67,0,0,0,40.607-15.551l28.472,31.226a2.443,2.443,0,1,0,3.61-3.293l-28.443-31.19a67.171,67.171,0,0,0,20.6-45.878h42.016a2.442,2.442,0,1,0,0-4.884Zm-46.965-1.626q-16.8-15.263-34.636-21.874l16.772-18.04a62.293,62.293,0,0,1,17.858,39.914ZM114.241,137.2c-20.794.751-41.094-7.632-60.42-25.009C60.4,106.067,81.742,88.362,109.9,87.4a71.5,71.5,0,0,1,23.835,3.276,2.577,2.577,0,0,0,.511.158c12.228,3.9,24.2,11.084,35.81,21.5-6.546,6.158-27.744,23.87-55.823,24.891Zm38.746-72.055-18.3,19.684a77.549,77.549,0,0,0-20.165-3.293V49.927A62.187,62.187,0,0,1,153,65.179ZM109.633,49.886V81.534h0a81.219,81.219,0,0,0-20.1,3.3L71.4,64.944a62.181,62.181,0,0,1,38.247-15.017ZM67.811,68.273,84.425,86.5a103.153,103.153,0,0,0-34.636,21.392A62.3,62.3,0,0,1,67.823,68.314ZM49.753,116.411c11.571,10.414,23.529,17.8,35.769,22.12l-4.491,5.137c-3.957,4.538-8.007,9.176-12.176,13.661A62.334,62.334,0,0,1,49.765,116.47Zm22.76,44.164c4.186-4.509,8.219-9.152,12.2-13.7,1.931-2.219,3.922-4.5,5.871-6.728a77.2,77.2,0,0,0,19.015,2.935v31.631a62.122,62.122,0,0,1-37.079-14.084Zm42.01,14.089V143.093a80.758,80.758,0,0,0,18.739-2.976l18.563,20.359a62.14,62.14,0,0,1-37.29,14.271Zm40.953-17.535L138.428,138.5a102.04,102.04,0,0,0,35.992-22.185,62.281,62.281,0,0,1-18.933,40.894Z" transform="translate(0 -0.194)" fill="url(#radial-gradient)"/>
    </g>
  </g>
</svg>
