<svg id="Layer_1" data-name="Layer 1" xmlns="http://www.w3.org/2000/svg" xmlns:xlink="http://www.w3.org/1999/xlink" width="239.69" height="193.32" viewBox="0 0 239.69 193.32">
  <defs>
    <linearGradient id="linear-gradient" y1="0.5" x2="1" y2="0.5" gradientUnits="objectBoundingBox">
      <stop offset="0.06" stop-color="#78ffd5"/>
      <stop offset="0.11" stop-color="#71e9d2"/>
      <stop offset="0.24" stop-color="#61b6cc"/>
      <stop offset="0.36" stop-color="#5592c8"/>
      <stop offset="0.45" stop-color="#4e7bc5"/>
      <stop offset="0.51" stop-color="#4b73c4"/>
      <stop offset="0.57" stop-color="#4d7ac5"/>
      <stop offset="0.65" stop-color="#548ec7"/>
      <stop offset="0.75" stop-color="#5eaecb"/>
      <stop offset="0.86" stop-color="#6cdad1"/>
      <stop offset="0.95" stop-color="#78ffd5"/>
    </linearGradient>
    <radialGradient id="radial-gradient" cx="0.5" cy="0.5" r="0.499" gradientUnits="objectBoundingBox">
      <stop offset="0.15" stop-color="#78ffd5"/>
      <stop offset="0.26" stop-color="#76fad4"/>
      <stop offset="0.4" stop-color="#72ecd3"/>
      <stop offset="0.55" stop-color="#6ad4d0"/>
      <stop offset="0.71" stop-color="#60b3cc"/>
      <stop offset="0.87" stop-color="#5289c7"/>
      <stop offset="0.95" stop-color="#4b73c4"/>
    </radialGradient>
    <linearGradient id="linear-gradient-2" x1="0.5" x2="0.5" y2="1" gradientUnits="objectBoundingBox">
      <stop offset="0.15" stop-color="#78ffd5"/>
      <stop offset="0.25" stop-color="#74f2d3"/>
      <stop offset="0.45" stop-color="#69d0cf"/>
      <stop offset="0.71" stop-color="#5799c9"/>
      <stop offset="0.88" stop-color="#4b73c4"/>
    </linearGradient>
    <linearGradient id="linear-gradient-3" x1="0.5" y1="0" x2="0.5" y2="1" xlink:href="#linear-gradient-2"/>
    <linearGradient id="linear-gradient-4" x1="0.5" y1="0" x2="0.5" y2="1" xlink:href="#linear-gradient-2"/>
    <linearGradient id="linear-gradient-5" x1="0.5" y1="0" x2="0.5" y2="0.999" xlink:href="#linear-gradient-2"/>
    <linearGradient id="linear-gradient-6" x1="0.5" y1="0" x2="0.5" y2="1" xlink:href="#linear-gradient-2"/>
  </defs>
  <path id="Trazado_3" data-name="Trazado 3" d="M278.9,189.239a19.4,19.4,0,0,1-18.582-25l1.3-4.347,1.306,4.347a16.674,16.674,0,0,0,31.93,0l1.306-4.351,1.31,4.351a19.414,19.414,0,0,1-18.582,25ZM262.23,169.362v.474a16.67,16.67,0,1,0,33.341,0v-.474a19.391,19.391,0,0,1-33.329,0Z" transform="translate(-159.495 -98.276)" fill="url(#linear-gradient)"/>
  <path id="Trazado_4" data-name="Trazado 4" d="M262.722,76.874H233.366a46.921,46.921,0,0,0-13.638-31.537L239.3,24.277a1.707,1.707,0,1,0-2.5-2.312L217.242,43a46.89,46.89,0,0,0-29.214-11.561V1.707a1.707,1.707,0,1,0-3.414,0V31.422A46.913,46.913,0,0,0,155.578,42.84L135.721,21.071a1.711,1.711,0,1,0-2.524,2.312l19.865,21.784a46.932,46.932,0,0,0-13.8,31.707h-29.6a1.707,1.707,0,0,0,0,3.414h29.6a46.944,46.944,0,0,0,14.482,32.146c-.489.509-.979,1.01-1.476,1.507l-.362.385c-5.314,5.353-12.589,12.682-20.72,10.879-4.848-1.075-6.308-4.266-6.748-6.073a8.975,8.975,0,0,1,3.071-8.921c2.277-1.9,6.462-2.374,8.451-.139a3.314,3.314,0,0,1,.867,2.863,4.4,4.4,0,0,1-2.335,3.006,1.708,1.708,0,0,0,1.6,3.017,7.838,7.838,0,0,0,4.092-5.418,6.709,6.709,0,0,0-1.676-5.738c-3.376-3.8-9.661-3.16-13.191-.216a12.408,12.408,0,0,0-4.185,12.351c1.067,4.389,4.466,7.526,9.326,8.6a15.514,15.514,0,0,0,3.368.385c8.424,0,15.322-6.936,20.516-12.181l.362-.366c.539-.539,1.071-1.087,1.6-1.638a46.832,46.832,0,0,0,28.3,10.79V155.22a1.707,1.707,0,1,0,3.414,0V125.5a46.855,46.855,0,0,0,28.385-10.867L236.3,136.458a1.712,1.712,0,0,0,2.524-2.312l-19.865-21.792a46.959,46.959,0,0,0,14.4-32.065h29.364a1.707,1.707,0,0,0,0-3.414ZM229.89,75.718q-11.742-10.647-24.208-15.287l11.734-12.59a43.507,43.507,0,0,1,12.474,27.9ZM187.821,95.864c-14.532.524-28.72-5.353-42.231-17.48,4.593-4.285,19.514-16.659,39.2-17.341a50,50,0,0,1,16.663,2.285,1.65,1.65,0,0,0,.355.112c8.547,2.728,16.913,7.749,25.017,15.029C222.264,82.77,207.447,95.152,187.821,95.864ZM214.915,45.5,202.125,59.26a54.334,54.334,0,0,0-14.1-2.312v-22.1A43.479,43.479,0,0,1,214.915,45.5Zm-30.3-10.655V56.963h0a56.8,56.8,0,0,0-14.046,2.312l-12.674-13.9a43.437,43.437,0,0,1,26.72-10.532ZM155.374,47.691l11.615,12.74a72.249,72.249,0,0,0-24.223,14.956,43.522,43.522,0,0,1,12.609-27.7Zm-12.62,33.661q12.131,10.917,25,15.46c-1.056,1.2-2.112,2.408-3.141,3.592-2.767,3.171-5.6,6.416-8.509,9.549a43.545,43.545,0,0,1-13.345-28.6Zm15.907,30.871c2.925-3.152,5.761-6.4,8.528-9.576,1.353-1.541,2.744-3.141,4.123-4.7a54.132,54.132,0,0,0,13.295,2.031v22.108a43.429,43.429,0,0,1-25.938-9.861Zm29.36,9.861V99.961a56.531,56.531,0,0,0,13.1-2.081l12.971,14.231a43.445,43.445,0,0,1-26.065,9.973Zm28.624-12.258L204.718,96.747a71.636,71.636,0,0,0,25.156-15.5,43.545,43.545,0,0,1-13.229,28.578Z" transform="translate(-66.357)" fill="url(#radial-gradient)"/>
  <path id="Trazado_5" data-name="Trazado 5" d="M0,458.107v-27.3H17.923a10.355,10.355,0,0,1,3.468.506,5.042,5.042,0,0,1,2.223,1.511,6.054,6.054,0,0,1,1.179,2.522,15.946,15.946,0,0,1,.351,3.527v11.443a14.738,14.738,0,0,1-.351,3.393,5.713,5.713,0,0,1-1.179,2.425,5.211,5.211,0,0,1-2.223,1.473,10.372,10.372,0,0,1-3.468.5Zm21.453-19.234a9.378,9.378,0,0,0-.166-1.936,2.759,2.759,0,0,0-.57-1.242,2.147,2.147,0,0,0-1.064-.656,6.149,6.149,0,0,0-1.711-.2H3.7v19.234H17.923a6.378,6.378,0,0,0,1.711-.194,2.289,2.289,0,0,0,1.083-.618,2.442,2.442,0,0,0,.57-1.161,8.438,8.438,0,0,0,.166-1.823Z" transform="translate(0 -264.792)" fill="url(#linear-gradient-2)"/>
  <path id="Trazado_6" data-name="Trazado 6" d="M130.043,458.109V445.7H114.036v12.407h-3.7v-27.3h3.7v10.858h16.008V430.8h3.7v27.3Z" transform="translate(-67.82 -264.79)" fill="url(#linear-gradient-3)"/>
  <path id="Trazado_7" data-name="Trazado 7" d="M236.258,458.115,226.17,436.124l-10.254,21.991H211.8l13.006-27.3h2.7l12.921,27.3Z" transform="translate(-130.182 -264.796)" fill="url(#linear-gradient-4)"/>
  <path id="Trazado_8" data-name="Trazado 8" d="M345.42,458.1l-4.582-12.169H330.526V458.1h-3.7V430.808h16.636a7.4,7.4,0,0,1,2.836.489,4.868,4.868,0,0,1,1.9,1.354,5.5,5.5,0,0,1,1.04,2.075,10.1,10.1,0,0,1,.331,2.687v1.94a8.157,8.157,0,0,1-1.11,4.4,4.9,4.9,0,0,1-3.726,2.112l4.624,12.244Zm.474-20.737a2.2,2.2,0,0,0-2.447-2.521H330.526V441.9h12.94a2.2,2.2,0,0,0,2.447-2.521Z" transform="translate(-200.885 -264.793)" fill="url(#linear-gradient-5)"/>
  <path id="Trazado_9" data-name="Trazado 9" d="M456.04,458.116V438.98l-9.946,19.12h-3.029l-9.977-19.066v19.082H429.67V430.81h3.445l11.615,22.3,11.561-22.3h3.179v27.306Z" transform="translate(-264.095 -264.796)" fill="url(#linear-gradient-6)"/>
  <path id="Trazado_10" data-name="Trazado 10" d="M572.175,458.115l-10.089-21.991-10.254,21.991H547.72l13.006-27.3h2.7l12.921,27.3Z" transform="translate(-336.654 -264.796)" fill="url(#linear-gradient-4)"/>
</svg>
