<svg id="Grupo_232" data-name="Grupo 232" xmlns="http://www.w3.org/2000/svg" width="34.331" height="34.175" viewBox="0 0 34.331 34.175">
  <path id="Trazado_153" data-name="Trazado 153" d="M14.242,7.5a6.242,6.242,0,1,0,6.242,6.242A6.24,6.24,0,0,0,14.242,7.5Z" transform="translate(2.924 3.346)" fill="#6f7070" opacity="0.3"/>
  <path id="Trazado_154" data-name="Trazado 154" d="M7.773,9.445l2.216-2.2L7.18,4.451l-2.2,2.2ZM1,16.077H5.682V19.2H1ZM16.605.55h3.121v4.6H16.605Zm11.953,8.9-2.2-2.2,2.793-2.793,2.194,2.2L28.559,9.453ZM26.343,28.031l2.793,2.809,2.2-2.2-2.809-2.793-2.185,2.185ZM30.65,16.077h4.682V19.2H30.65Zm-12.484-7.8a9.363,9.363,0,1,0,9.363,9.363A9.37,9.37,0,0,0,18.166,8.275Zm0,15.605a6.242,6.242,0,1,1,6.242-6.242A6.24,6.24,0,0,1,18.166,23.88Zm-1.561,6.242h3.121v4.6H16.605Zm-11.626-1.5,2.2,2.2,2.793-2.809-2.2-2.2Z" transform="translate(-1 -0.55)" fill="#6f7070"/>
</svg>
