<svg xmlns="http://www.w3.org/2000/svg" width="35.241" height="35.241" viewBox="0 0 35.241 35.241">
  <g id="pinterest-1" transform="translate(0.5 0.5)">
    <path id="Trazado_57" data-name="Trazado 57" d="M38.341,21.321A17.121,17.121,0,1,1,21.221,4.2,17.122,17.122,0,0,1,38.341,21.321Z" transform="translate(-4.1 -4.2)" fill="#ca2127" stroke="#707070" stroke-width="1"/>
    <path id="Trazado_58" data-name="Trazado 58" d="M73.85,62.031c-4.825.518-9.63,4.229-9.825,9.542-.127,3.242,1.231,5.674,4.473,6.358a17.306,17.306,0,0,0,.439-2.363,6.321,6.321,0,0,1-1.572-2.236c-1.192-6.993,8.467-11.769,13.536-6.885,3.5,3.389,1.192,13.81-4.453,12.726-5.411-1.035,2.647-9.327-1.67-10.958-3.506-1.328-5.372,4.053-3.711,6.719-.977,4.59-3.076,8.917-2.227,14.669,2.764-1.9,3.692-5.557,4.453-9.366,1.387.8,2.129,1.641,3.9,1.768,6.524.479,10.167-6.2,9.278-12.374C85.667,64.16,79.944,61.377,73.85,62.031Z" transform="translate(-58.165 -56.298)" fill="#fff" stroke="#707070" stroke-width="1"/>
  </g>
</svg>
