<svg id="pinterest-1" xmlns="http://www.w3.org/2000/svg" width="44" height="44" viewBox="0 0 44 44">
  <path id="Trazado_57" data-name="Trazado 57" d="M48.1,26.2a22,22,0,1,1-22-22A22,22,0,0,1,48.1,26.2Z" transform="translate(-4.1 -4.2)" fill="#ca2127"/>
  <path id="Trazado_58" data-name="Trazado 58" d="M76.653,62.058c-6.2.665-12.374,5.434-12.625,12.261-.163,4.167,1.581,7.291,5.748,8.17a22.24,22.24,0,0,0,.565-3.037s-1.832-1.757-2.021-2.874C66.788,67.592,79.2,61.455,85.714,67.73c4.493,4.355,1.531,17.746-5.723,16.353C73.038,82.752,83.392,72.1,77.845,70c-4.505-1.707-6.9,5.208-4.769,8.634-1.255,5.9-3.953,11.458-2.861,18.85,3.552-2.447,4.744-7.141,5.723-12.035,1.782,1.029,2.736,2.108,5.007,2.272,8.383.615,13.064-7.969,11.922-15.9C91.838,64.794,84.484,61.217,76.653,62.058Z" transform="translate(-56.497 -54.691)" fill="#fff"/>
</svg>
