<svg xmlns="http://www.w3.org/2000/svg" width="241.136" height="714.952" viewBox="0 0 241.136 714.952">
  <path id="Trazado_151" data-name="Trazado 151" d="M420.961,763.645c10.492-7.824,20.546-17.7,29.9-28.239,7.737-8.724,15.245-18,22.692-27.28,3.444-4.287,7.657-8.319,9.374-14.734a1.193,1.193,0,0,0-.15-.839c-4.992-8.229-20.975,1.933-25.737,4.3-16.842,8.409-34.093,21.179-47.261,39.2-3.834,6.055-14.656,23.233-8.845,32.316a43.893,43.893,0,0,0-1.128,6.085,427.873,427.873,0,0,1-23.6-39.331,29.509,29.509,0,0,1,.739-7.3,8.207,8.207,0,0,0,5.69-.06c10.792-3.3,20.426-17.432,27.254-29.528,9.953-17.612,19.388-37.787,27.943-56.913a2.7,2.7,0,0,0,.16-2.368c-3.744-6.475-13.777.824-18.08,2.443-11.551,4.347-22.822,9.893-32.246,21.134a2.65,2.65,0,0,0-.23.39c-.04.045-.1.075-.13.135-5.241,7.974-19.358,48.579-13.557,61.364a32.616,32.616,0,0,0-1.038,3.747,491.91,491.91,0,0,1-25.967-61.154,35.59,35.59,0,0,1,1.737-14.719c5.81,3.927,15.324,2.983,20.186-1.559a3.509,3.509,0,0,0,.3-.375.28.28,0,0,1,.08-.06c.09-.1.16-.225.25-.345l.01-.015c6.549-8.409,10.752-19.755,16.982-28.659,4.872-6.955,14.326-11.961,17.281-21.554A1.5,1.5,0,0,0,403.26,598c-6.879-6.145-22.812,4.467-29.131,8.559-8.466,5.486-22.832,14.089-28.153,26.245-3.474,7.929-2.8,13.49-.09,17.042a30.281,30.281,0,0,0-2.456,7c-2.9-8.888-5.651-17.9-8.126-27.115-3.245-12.051-6.07-24.3-8.546-36.648a19.279,19.279,0,0,1,2.047-6c3.794,8.379,12.09,4.5,18.04.27,7.118-5.051,13.178-13.5,20.027-19.306,8.306-7.03,16.682-11.316,25.627-15.888.359-.18,1.248-.794,1.308-1.514.05-.63.1-1.259.14-1.889a.858.858,0,0,0-.389-.929c-12.3-8.214-31.737-1.978-44.076,3.732-10.832,5.006-21.444,11.556-21.923,30.172a36.329,36.329,0,0,0-2.286,3.687q-4.687-25.114-7.278-50.767a82.36,82.36,0,0,1,2.276-11.137,6.471,6.471,0,0,0,4.912,1.739c14.905-.7,20.965-29.138,28.692-44.007a174.861,174.861,0,0,1,11.671-19.306c.978-1.409,3.664-3.9,3.594-6.49-.14-5.2-5.73-4.182-7.9-4.077-17.7.794-30.809,9.083-40.143,32.061-2.666,7.509-6.489,25.721-3.514,35.449a1.624,1.624,0,0,0-.1.18c-.26.764-.479,1.544-.719,2.323a655.567,655.567,0,0,1-1.188-87.235c2.067-4.557,5.531-6.97,8.855-9.308A17.406,17.406,0,0,0,326.3,430.2c6.349,8.2,14.336-.749,18.769-8.034,6.03-9.908,11.581-18.2,18.719-26.35,2.236-2.548,7.308-5.486,8.156-9.743a1.321,1.321,0,0,0-.16-.884c-3.115-4.137-10.582-1.934-14.206-1.694-7.637.51-13.1,3.387-19.557,9.173-4.283,3.822-9.874,7.285-12.459,14.119a35.521,35.521,0,0,0-1.7,13.07,56.2,56.2,0,0,0-7.807,6.235q.809-12.343,2.067-24.627c0-.015.01-.015.01-.03v-.03q1.183-11.489,2.765-22.873a25.5,25.5,0,0,0,6.559-7.344c11.4,10.043,19.428-12.516,25.617-22.723,1.787-2.953,12.639-14.284,11.121-18.856-1.178-3.537-6.04-1.544-7.857-.944a57.27,57.27,0,0,0-11.1,5.7l-.02-.045c-.06.06-.13.12-.19.18-11.621,7.464-25.557,20.58-19.567,33.545-.02.03-.06.06-.07.09a27.668,27.668,0,0,1-3.923,6.28,618.135,618.135,0,0,1,14.266-69.7c2.236-2.473,4.672-3.852,7.368-4.032-.09.315-.19.63-.27.944-2.775,22.753,15.983,10.7,22.712,7.689,7.228-3.223,15.414-2.713,22.393-6.235,2.366-1.2,4.2-2.428,3.314-6.535-1.188-5.516-9.814-10.222-12.849-12.216-5.012-3.3-10.522-6.715-16.073-6.88-8.346-.255-14.246,8.619-17.93,19.126a14.206,14.206,0,0,0-7.048,2.113q2.561-9.218,5.4-18.271c9.564.435,13.018-19.635,15.454-29.783,4.063-16.922,8.037-33.89,12.05-50.842,2.027-8.559,10.073-29.153,7.577-37.787-.349-1.214-2.865-.255-3.834.794-14.626,11.436-54.669,105-34.852,116.523,0,.015-.01.03-.02.03q-3.774,11.894-7.038,24.057a47,47,0,0,0-4.552-14.854c.11-.54.21-1.094.29-1.649,2.136-15.259-6.15-24.3-14.206-30.038-4.582-3.073-26.745-21.029-31.627-9.488-.01.1-.01.225-.02.33,1.657,4.6,5.171,8.019,7.268,12.231,3.744,7.509,5.641,16.308,8.6,24.462,3.634,10.013,8.925,20.1,17.381,19.1,3.9-.465,7.647-3.882,10.073-8.619a50.977,50.977,0,0,1,2.835,23.038,2.077,2.077,0,0,0,.05.764c-4.752,19.65-8.576,39.735-11.431,60.09a48.838,48.838,0,0,0-2.166-7.749c2.576-4.587,3.354-11.871,2.616-18.976-4.153-23.473-20.576-53.51-36.908-59.116-9.754-3.343-7.478,6.04-3.245,14.449,6.659,13.25,9.424,27.355,12.719,42.883,2.376,11.2,6.829,23.278,15.414,25.271a7.794,7.794,0,0,0,5.94-.764c2.825,8.289,3.015,18.032,2.765,27.19,0,.075.03.1.03.18q-1.767,17-2.636,34.145a54.718,54.718,0,0,0-5.131-10.162c-.01-.015-.02-.015-.02-.03a29.2,29.2,0,0,0-1.557-11.391.883.883,0,0,0-.1-.18,2.7,2.7,0,0,0-.08-.39c-5.062-12.4-9.824-25.691-16.542-36.288-5.012-7.914-10.473-11.287-16.972-15.573-3.025-1.993-8.226-7.375-11.66-3.6-3.025,3.313-1.637,8.439-.01,12.426,4.133,10.1,9.484,19.006,13.527,29.333,4.592,11.751,8.955,23.907,17.1,30.772,5.451,4.6,11.231,4.736,14.256.719a60.142,60.142,0,0,1,6.449,18.451,1.537,1.537,0,0,0,.17.42c-.6,20.565-.26,41.2,1.078,61.709-.739-1.049-1.507-2.068-2.316-3.013,3.245-24.7-19.647-39.615-31.867-48.5-9.045-6.58-25.577-20.8-35.321-9.308a1.621,1.621,0,0,0-.449,1.2c2.935,11.032,13.527,20.82,18.988,29.588,7.038,11.3,13.667,24.612,22.772,32.406,7.228,6.19,17.641,9.113,23.77-.24a41.508,41.508,0,0,1,5.241,9.2c1.6,19.411,4.073,38.686,7.438,57.692a20.56,20.56,0,0,0-4.113-2.113c2.4-9.068-3.265-18.481-8.765-24.237-11.551-10.732-23.151-18.271-36.9-19.2-5.6-.39-12.5-1.469-17.661,2.653a1.2,1.2,0,0,0-.509.869c.449,4.886,6.829,6.7,9.374,9.473,4.792,5.216,8.6,12.411,12.7,18.751,6.6,10.192,14.875,22.858,24.868,24.342,4.962.734,10.273-1.6,13.977-6.64.349-.465.649-.944.938-1.409a22.409,22.409,0,0,1,7.458,4.961c.349,1.814.679,3.642,1.048,5.456a1.665,1.665,0,0,0,.1.465q4.3,21.427,10.113,42.253c1.5,5.321,3.095,10.552,4.722,15.768a17.109,17.109,0,0,1-4.363-2.4c-2.646-30.052-29.211-36.513-45.354-36.543-10.113-.015-38.186,3.238-42.868,19.875a.258.258,0,0,0,.14.285c-.07.09-.09.165-.05.195,5.391,3.283,11.161,2.578,16.742,5.2,6.19,2.908,11.78,7.345,17.4,12.156,9.694,8.3,19.517,18.016,30.759,20.789,9.165,2.248,22.473-.51,23.371-16.563a18.369,18.369,0,0,0,5.71,1.709c1.178,3.642,2.416,7.225,3.664,10.807.01.09,0,.18.01.27a.321.321,0,0,0,.16.225,502.9,502.9,0,0,0,21.863,53.09,18.484,18.484,0,0,0-5.2-.66,20.39,20.39,0,0,0-1.667-4.661c-4.093-8.274-16.013-9.443-22.243-10.207-10.073-1.229-19.937,1.484-29.551,5.771-.12.06-.2.12-.31.18a1.562,1.562,0,0,0-.24.09c-4.552,2.353-42.229,20.729-34.9,35.853,3.474,7.165,20.2,2.173,23.78,2.338,11.551.54,23.9,1.409,35.361-.809,6.639-1.289,29.96-9.713,30.14-24.971a29.75,29.75,0,0,1,7.3,2.173h.03a439.423,439.423,0,0,0,25.817,45.176,16.209,16.209,0,0,0-6.05,2.488,8.343,8.343,0,0,0-5.032-2.248c-7.1-.869-15.344,5.291-21.4,10.057-11.621,9.968-22.582,21.854-30.569,38.222-6.11,12.516-15.065,39.091-12.11,55.144.07.375.569.39.729.4,9.294.914,19.937-17.282,26.745-24.312,13.288-13.73,27.354-28.9,37.737-47.694,4.133-7.479,8.865-20.864,5.291-27.684a7.737,7.737,0,0,1,6.21-1.709,1.392,1.392,0,0,0,.25,0c24.06,36.093,52.253,66.056,83.371,88.074,1.168.824,5.032-1.769,3.364-2.953-28.712-20.31-54.968-47.395-77.72-79.89.01-.12.06-.21.06-.33a41.251,41.251,0,0,1,.719-8.739C409.75,772.593,417.4,766.313,420.961,763.645ZM391.49,609.784c-2.775,3.642-5.91,6.445-8.616,10.327-6.2,8.918-10.463,20.295-17,28.689-4.862,4.452-9.774,4.062-13.078,1.124.13-.09.27-.15.389-.225a46.628,46.628,0,0,0,7.517-7.255c2.346-2.638,4.672-5.306,7.008-7.974,8.416-9.653,17.121-19.635,26.456-27.609.3-.255.589-.51.879-.764A11.332,11.332,0,0,1,391.49,609.784Zm1.967-4.841c-9.414,8.034-18.16,18.076-26.616,27.774-2.326,2.668-4.652,5.336-7,7.959a45.5,45.5,0,0,1-7.268,7.03,4.573,4.573,0,0,1-1.188.63,11.658,11.658,0,0,1-1.348-2.368,28.228,28.228,0,0,1,3.734-10.043,45.537,45.537,0,0,1,7.028-8.484,119.724,119.724,0,0,1,35.081-24.687C395.074,603.549,394.265,604.254,393.457,604.943Zm-38.186,21.494c9.634-9.593,20.306-18.436,31.557-22.783a39.743,39.743,0,0,1,6.339-1.889,122.179,122.179,0,0,0-33.175,23.877,47.264,47.264,0,0,0-7.288,8.813,31.017,31.017,0,0,0-3.574,8.559C348.242,638.083,349.76,631.908,355.271,626.437Zm29.87-73.7c-5.511,5.216-13.058,7.674-18.958,12.456-4.972,4.032-26.466,27.7-32.975,19.68.06-.03.1-.015.16-.06,4.932-2.758,9.424-7.015,13.777-11.152a88.912,88.912,0,0,1,11.421-9.683,70.338,70.338,0,0,1,12.2-6l15.264-6.3A5.433,5.433,0,0,1,385.141,552.737Zm-4.363-4.362c2.356.1,4.253.435,5.151,1.109L370.385,555.9a71.931,71.931,0,0,0-12.4,6.1,89.577,89.577,0,0,0-11.611,9.833c-4.293,4.062-8.725,8.274-13.507,10.942a1.986,1.986,0,0,1-.409.18,27.617,27.617,0,0,1,2.346-6.475,36.787,36.787,0,0,1,5.95-8.559,50.768,50.768,0,0,1,12.439-9.353A83.062,83.062,0,0,1,380.778,548.375Zm-18.2,1.544c.6-.135,3.554-.6,7.178-.989a93.707,93.707,0,0,0-17.071,7.614,51.773,51.773,0,0,0-12.769,9.608,37.573,37.573,0,0,0-8.116,13.43C332.788,557.953,350.548,552.647,362.578,549.919Zm.02-91.192c.29,2.338-2.715,5.381-5.032,9.113-2.666,4.3-5.231,8.738-7.637,13.385-5.1,9.818-8.6,22.169-14.116,31.342-5.81,9.638-9.664,10.657-12,7.794a3.374,3.374,0,0,0,.429-.21,13.94,13.94,0,0,0,3.484-3.972c5.571-8.379,10.283-17.957,14.546-27.055l.509-1.094c2.9-6.19,5.89-12.591,9.8-17.342,1.178-1.439,2.476-2.743,3.734-4.017a42.806,42.806,0,0,0,5.73-6.7A4.844,4.844,0,0,0,362.6,458.727Zm-1.188-1.349a2.721,2.721,0,0,1-.4,1.064,40.629,40.629,0,0,1-5.511,6.415c-1.278,1.3-2.606,2.638-3.834,4.122-4.073,4.931-7.128,11.466-10.083,17.777l-.509,1.079c-4.223,9.008-8.885,18.5-14.376,26.77a12.4,12.4,0,0,1-3.035,3.522,1.49,1.49,0,0,1-1.008.255,17.224,17.224,0,0,1-.948-3.1l-.05-2.128a68.9,68.9,0,0,1,.11-8.124,46.648,46.648,0,0,1,1.587-8.064c3.175-11.511,8.676-21.689,15.494-28.659C345.467,461.545,353.444,457.693,361.41,457.378Zm-36.429,26.23c6.5-16.008,19.008-32.031,32.815-28.3.23.06.409.135.629.195-7.238,1.049-14.366,4.841-20.4,11-7.048,7.195-12.739,17.717-16.013,29.633-.18.645-.28,1.184-.429,1.784A67.547,67.547,0,0,1,324.981,483.609Zm38.326-92.346c-2.865,3.283-5.87,6.31-8.666,9.728-3.824,4.677-18.988,33.83-24.469,26.755a17.569,17.569,0,0,1-1.547-3.462,4.527,4.527,0,0,0,2.007-1.049,103.988,103.988,0,0,0,11.081-12.74,106.139,106.139,0,0,1,10.4-12.081,66.9,66.9,0,0,1,13.288-9.353C364.9,389.659,364.106,390.363,363.307,391.263Zm-2.206-4.976a8.326,8.326,0,0,1,3.953.63,68.555,68.555,0,0,0-13.717,9.638,108.458,108.458,0,0,0-10.572,12.276,101.606,101.606,0,0,1-10.892,12.546,2.969,2.969,0,0,1-1.8.854c-.12-.615-.22-1.229-.28-1.844.18-.39.389-.764.609-1.154l5.661-9.788a62.975,62.975,0,0,1,5.022-7.779,44.167,44.167,0,0,1,8.845-7.794C352.136,390.8,356.489,387.71,361.1,386.286Zm-23.94,11.481c4.492-4,9.045-8.124,14.216-9.893a23.583,23.583,0,0,1,2.865-.719c-2.376,1.439-4.682,3.1-6.938,4.751a45.121,45.121,0,0,0-9.135,8.079,62.586,62.586,0,0,0-5.2,8.034l-5.261,9.1C328.166,409.159,332.958,401.515,337.161,397.768Zm18.509-58.5a117.555,117.555,0,0,0-9.294,14.584c-3.275,6.115-7.747,20.265-14.416,15.633a16.2,16.2,0,0,0,2.586-2.383,46.758,46.758,0,0,0,5.341-8.214,145.689,145.689,0,0,1,10.133-16.308,41.5,41.5,0,0,1,9.9-9.788C359.623,335.459,356.708,337.872,355.67,339.266Zm-10.942-1.814c1.967-1.409,3.744-2.518,5.062-3.283a37.775,37.775,0,0,1,5.181-2.563c.669-.255,3.614-1.679,4.522-.884a42.863,42.863,0,0,0-10.433,10.237,148.285,148.285,0,0,0-10.353,16.668,44.83,44.83,0,0,1-5.032,7.749,15.258,15.258,0,0,1-3.135,2.653,15.522,15.522,0,0,1-1.388-2.758,36.579,36.579,0,0,1,5.261-15.708A61.452,61.452,0,0,1,344.728,337.453Zm-10.742,9.7c-.21.315-.439.6-.639.929a39.988,39.988,0,0,0-5.082,12.965C328.046,356.1,330.532,351.317,333.986,347.15Zm45.095-45.1c-2.226.54-4.443,1.2-6.639,1.934-5.95,2.008-27.724,15.723-25.477-3.133a9.822,9.822,0,0,0,1.048-.195c6.319-1.889,13.048-3.792,19.747-4.482a40.048,40.048,0,0,1,18.12,2.218C385.56,302.933,382.315,301.27,379.081,302.049ZM369.2,283.7c1,.51,2.805,1.409,4.872,2.533a11.491,11.491,0,0,0-1.3-.585,15.03,15.03,0,0,0-4.453-.794,25.045,25.045,0,0,0-12.459,2.173,20.687,20.687,0,0,0-4.932,3.477C355.141,282.729,361.1,279.551,369.2,283.7Zm-20.675,12.231a20.608,20.608,0,0,1,7.787-6.82,22.837,22.837,0,0,1,10.153-2.128c.589,0,1.188.015,1.807.045a14.129,14.129,0,0,1,4.153.719,19.665,19.665,0,0,1,2.925,1.484c.409.24.809.48,1.218.689.749.4,1.517.779,2.276,1.139a29.9,29.9,0,0,1,3.634,1.964,12.243,12.243,0,0,1,3.145,2.938,41.271,41.271,0,0,0-17.95-1.979c-6.789.69-13.567,2.608-19.927,4.512-.03.015-.06.015-.1.03C347.923,297.642,348.212,296.773,348.522,295.934Zm20.665-108.009q-3.2,13.49-6.4,26.995-3.5,14.771-7,29.528c-1.168,4.916-2.246,9.893-3.5,14.764-2.266,8.783-1.278,11.706-7.947,9.893.948-2.578,1.9-5.2,2.835-7.689,1.617-4.287,3.294-8.708,4.882-13.25,1.3-3.717,2.646-7.569,3.684-11.571.629-2.428,1.148-4.931,1.657-7.344l.549-2.623c2.755-12.77,6.639-25.121,10.393-37.082l4.023-12.815C371.234,181.029,369.826,185.211,369.187,187.924Zm2.456-14.015-4.622,14.7c-3.774,12.021-7.667,24.447-10.453,37.337l-.559,2.638c-.5,2.383-1.018,4.856-1.627,7.21-1.008,3.9-2.336,7.689-3.624,11.362-1.577,4.527-3.245,8.933-4.862,13.19-1.018,2.7-2.057,5.516-3.085,8.319-.459-.15-.889-.3-1.278-.45,0-.345,0-.675.01-1.049a97.75,97.75,0,0,1,.809-11.871,81.093,81.093,0,0,1,2.995-11.871,669.2,669.2,0,0,1,27.554-73.7C372.532,171.137,372.092,172.516,371.643,173.91ZM338.4,255.494a101.121,101.121,0,0,1,3.255-16.293,216,216,0,0,1,9.324-25.451q5.72-13.6,12.15-26.47c1.8-3.612,4.453-10.387,7.368-15.813a673.141,673.141,0,0,0-26.466,71.062,85.69,85.69,0,0,0-3.095,12.306A99.6,99.6,0,0,0,340.1,267.1c0,.15,0,.345-.01.51C336.6,265.791,337.51,263.333,338.4,255.494Zm-28.213,4.122c4.572,3.253,9.624,7.494,12.13,14.464a33.026,33.026,0,0,1,1.138,14.7,27.369,27.369,0,0,0-2.176-7.359c-4.413-9.983-10.992-17.057-16.223-22.123a89.8,89.8,0,0,0-12.13-10C298.875,251.642,304.765,255.989,310.186,259.616Zm2.9,40.3c-9.125-2.683-12.639-23.188-16.353-33.665a70,70,0,0,0-5.161-11.376c-.729-1.274-2.286-3.208-3.115-4.8.29.315.6.585.859.914.469.615.909,1.289,1.338,1.964.389.6.779,1.214,1.188,1.769a27.435,27.435,0,0,0,1.8,2.158c.469.54.948,1.064,1.4,1.649a42.709,42.709,0,0,1,4.033,6.8c.629,1.229,1.268,2.458,1.937,3.627.519.9,1.058,1.784,1.6,2.668.709,1.139,1.408,2.293,2.057,3.507a79,79,0,0,1,3.265,7.315c.649,1.589,1.288,3.178,1.987,4.721,2.306,5.1,4.722,8.349,7.4,9.923a4.454,4.454,0,0,0,2.216.719,2.448,2.448,0,0,0,.569-.06c.01,0,.01,0,.02-.015A6.274,6.274,0,0,1,313.081,299.921Zm8.915-6.6a2.593,2.593,0,0,1-2.126,2.248,2.9,2.9,0,0,1-2.047-.525c-2.386-1.409-4.592-4.392-6.729-9.128-.679-1.514-1.318-3.073-1.947-4.632a77.107,77.107,0,0,0-3.374-7.539c-.669-1.259-1.4-2.428-2.126-3.612-.529-.854-1.058-1.709-1.557-2.593-.659-1.139-1.268-2.338-1.887-3.537a45.938,45.938,0,0,0-4.233-7.135c-.469-.6-.968-1.169-1.468-1.724-.579-.66-1.158-1.3-1.7-2.038-.389-.525-.759-1.109-1.118-1.664-.22-.345-.439-.689-.669-1.019a84.289,84.289,0,0,1,13.238,10.717c5.111,4.946,11.541,11.841,15.8,21.494C321.936,286.85,322.575,290.358,322,293.326ZM292.9,427.3c-3.334-1.8-6.18-6.7-8.356-10.687-3.135-5.771-5.511-12.531-8.007-18.931-2.366-6.04-4.832-11.931-7.557-17.627-.968-2.023-3.574-5.711-5.012-8.813.669,1.034,1.348,2.068,2.027,3.073.539.809,1.078,1.6,1.607,2.413,4.832,7.389,9.095,15.828,13.218,24,4.193,8.289,8.526,16.877,13.487,24.417.629.944,1.3,1.9,2,2.773A5.1,5.1,0,0,1,292.9,427.3Zm5.171-.075a27.568,27.568,0,0,1-2.735-3.6c-4.892-7.449-9.195-15.963-13.358-24.207-4.143-8.214-8.436-16.713-13.338-24.207-.539-.824-1.078-1.634-1.627-2.443-1.408-2.1-2.845-4.272-4.123-6.58a4.32,4.32,0,0,1,.19-1.229c1.537,1.514,3.115,2.968,4.662,4.347a55.976,55.976,0,0,1,9.574,10.057,78.168,78.168,0,0,1,5.76,10.732c.539,1.154,1.088,2.293,1.637,3.432,2.3,4.691,4.842,9.188,7.3,13.55,2,3.537,4.053,7.18,5.96,10.9a19.976,19.976,0,0,1,2.276,6.46A6.081,6.081,0,0,1,298.076,427.221Zm1.058-10.567c-1.927-3.747-4-7.419-6-10.972-2.446-4.332-4.972-8.8-7.238-13.43-.549-1.124-1.088-2.263-1.627-3.4a79.627,79.627,0,0,0-5.94-11.032,57.427,57.427,0,0,0-9.844-10.372c-1.138-1-2.3-2.038-3.434-3.118,1.577.689,3.644,2.743,4.872,3.567,4.433,2.983,8.586,5.4,12.3,10.312,7.777,10.3,12.878,25.556,18.22,38.671a13.322,13.322,0,0,1,.559,4A30.453,30.453,0,0,0,299.134,416.654ZM271.86,491.942c-4-6.475-7.917-13.07-12.01-19.426-1.747-2.713-9.824-11.736-11.4-15.978a25.161,25.161,0,0,0,2.855,3l.439.4a124.752,124.752,0,0,1,11.73,13.19q3.459,4.317,6.889,8.679c7.767,9.833,15.794,19.98,24.289,28.824a21.405,21.405,0,0,0,2.6,2.4,8.418,8.418,0,0,0,5.022,1.754,3.376,3.376,0,0,0,.389-.015,2.945,2.945,0,0,0,.948-.21C294.362,528.32,277.48,501.026,271.86,491.942ZM302.608,512.6a7.2,7.2,0,0,1-4.722-1.529,19.967,19.967,0,0,1-2.406-2.233c-8.446-8.783-16.443-18.9-24.18-28.7-2.3-2.908-4.592-5.816-6.9-8.679a127.633,127.633,0,0,0-11.89-13.355l-.449-.42a17.583,17.583,0,0,1-3.414-3.837,2.387,2.387,0,0,1,1.907.315c3.544,2.218,7.038,4.856,10.423,7.39l11.311,8.5a59.226,59.226,0,0,1,8.865,7.644c1.577,1.754,3.075,3.792,4.512,5.756.7.959,1.4,1.9,2.116,2.848,1.647,2.143,3.384,4.2,5.062,6.16a106.854,106.854,0,0,1,7.218,9.158,22.423,22.423,0,0,1,3.754,10.447A1.477,1.477,0,0,1,302.608,512.6Zm-1.527-12.531a106.943,106.943,0,0,0-7.338-9.308c-1.667-1.964-3.394-3.987-5.012-6.1-.709-.914-1.4-1.859-2.086-2.8-1.468-2.009-2.995-4.077-4.622-5.906a61.158,61.158,0,0,0-9.075-7.839l-11.321-8.5c-3.125-2.353-6.349-4.736-9.634-6.865,9.115,1.664,31.428,18.5,33.5,20.385,9.255,8.409,22.462,19.2,19.657,38.057A25.084,25.084,0,0,0,301.081,500.066Zm-8.646-190.3a96.005,96.005,0,0,1,20.546,44.1c.589,5.7.419,11.167-1.338,14.329a14.076,14.076,0,0,0-.2-1.949c-4.033-24.612-13.208-47.215-25.867-64C288.871,305.631,291.926,309.154,292.435,309.768Zm10.912,60.255c-5.7-2.518-8.426-16.488-9.923-23.892-2.875-14.239-5.82-27.25-11.68-39.466-.439-.914-2.715-4.721-4.073-7.629,4.952,5.7,9.175,13.655,13.168,24.732,2.616,7.255,4.792,15.019,6.908,22.513,1.028,3.672,2.067,7.33,3.145,10.957a52.007,52.007,0,0,0,3.225,8.724,20.234,20.234,0,0,0,3.115,4.961A9.289,9.289,0,0,1,303.347,370.023Zm6.27-.075c-1.727-.045-3.185-2.953-4.433-5.441a51.665,51.665,0,0,1-2.975-8.154c-1.078-3.612-2.106-7.27-3.135-10.912-2.126-7.554-4.323-15.349-6.968-22.708-3.963-11-8.176-19.036-13.088-24.881a19.468,19.468,0,0,1,4.483,4.467c13.028,16.623,22.452,39.511,26.536,64.437a7.713,7.713,0,0,1,.15,2.278C310.106,369.529,309.846,369.948,309.617,369.948Zm-6.439,187.435c3.794,3.957,8.656,9.878,9.225,17.372a10.787,10.787,0,0,1-.02,1.8,11.452,11.452,0,0,0-.988-1.409,145.768,145.768,0,0,0-19.907-20.774c-1.927-1.679-3.864-3.3-5.83-4.871a69,69,0,0,0-13.388-8.843,31.925,31.925,0,0,0-8.416-2.593C277.361,535.59,292.356,547.326,303.178,557.384Zm-3.265,31.761c-2.576-.09-5.96-3.717-8.076-5.666-7.148-6.55-12.719-16.4-18.479-25.331C269.484,552.138,265,548,260.848,542.784c.459.345.908.719,1.348,1.094a140.679,140.679,0,0,1,17.671,18.406q1.6,2,3.185,4.047a103.843,103.843,0,0,0,9.854,11.481,40.948,40.948,0,0,0,6.419,5.021,12.815,12.815,0,0,0,6.579,2.4c.15,0,.309,0,.459-.015a6.417,6.417,0,0,0,2.216-.6C305.883,587.5,302.349,589.235,299.913,589.145ZM311.554,578.8a6.246,6.246,0,0,1-5.261,4.242c-2.336.165-4.652-1.094-6.419-2.218a39.556,39.556,0,0,1-6.2-4.856,101.5,101.5,0,0,1-9.684-11.286c-1.058-1.364-2.126-2.728-3.2-4.062a142.274,142.274,0,0,0-17.87-18.616,18.425,18.425,0,0,0-2.885-2.143,28.809,28.809,0,0,1,11.8,2.878,67.273,67.273,0,0,1,13.138,8.679c1.947,1.559,3.874,3.178,5.78,4.826a144.856,144.856,0,0,1,19.737,20.61C310.8,577.244,311.7,578.413,311.554,578.8ZM278.04,616.934a51.1,51.1,0,0,1,18.709.9c5.97,1.3,12.3,3.223,17.72,7.315,4.542,3.432,8.715,9.668,11.381,16.428a48.081,48.081,0,0,0-3.524-3.537,84.41,84.41,0,0,0-11.151-9.068c-5.91-3.822-12.589-6.235-21.654-7.854-9.1-1.619-16.373-1.634-22.862-.045a40.4,40.4,0,0,0-8.3,3.1A38.031,38.031,0,0,1,278.04,616.934ZM266.888,623.2c6.359-1.559,13.5-1.544,22.462.06,8.925,1.589,15.484,3.957,21.255,7.689a81.7,81.7,0,0,1,10.962,8.918,30.858,30.858,0,0,1,6.04,7.03,38.633,38.633,0,0,1,.958,4.8,3.085,3.085,0,0,1-1.478.18c-3.644-.39-7.058-3.088-10.353-5.7-.948-.749-1.9-1.5-2.845-2.2a73.49,73.49,0,0,0-10.233-6.07c-7.188-3.687-15.7-7.7-24.409-9.668a49.535,49.535,0,0,0-10.942-1.274A38.082,38.082,0,0,0,254,629.63l-.719.3c-.529.225-1.048.435-1.567.615A42.009,42.009,0,0,1,266.888,623.2ZM311.1,669.485c-12.11-2.173-23.251-16.443-33.8-24.6-7.288-5.636-14.7-6.685-21.993-9.488,6.938-.135,14.3.345,20.955,3.987,4,2.188,7.767,5.5,11.4,8.708L305.3,663.639a34.54,34.54,0,0,0,6.04,4.587,16.011,16.011,0,0,0,5.3,1.694A27.641,27.641,0,0,1,311.1,669.485Zm12.689-1.754c-4.163.435-8.206.435-11.96-1.574a33.314,33.314,0,0,1-5.8-4.407l-17.641-15.543c-3.694-3.253-7.517-6.625-11.641-8.873-8.356-4.557-17.631-4.317-25.927-3.972l-.6-.315a12.212,12.212,0,0,0,3.424-1.019l.7-.285c7.328-2.923,15.624-3.372,24.669-1.334,8.6,1.934,17.042,5.936,24.16,9.578a72.992,72.992,0,0,1,10.063,5.951c.938.69,1.867,1.424,2.805,2.174,3.424,2.713,6.968,5.531,10.922,5.951.18.015.359.03.529.03a4.264,4.264,0,0,0,1.268-.21C329.174,659.772,327.786,664.943,323.793,667.731Zm31.637,57.437c.329.6-.319,2.338-1.068,3.238a5.984,5.984,0,0,1-2.845,1.694,104.168,104.168,0,0,1-13.667,4.272,94.937,94.937,0,0,1-16.9,1.529c-2.176.075-4.353.135-6.529.255a127.46,127.46,0,0,0-27.175,4.542l-1.248.36a42.777,42.777,0,0,1-10.572,2.068c4.473-4.107,9.454-6.955,14.286-9.713,7.647-4.377,15.564-8.9,23.641-11.8a94.761,94.761,0,0,1,15.085-3.9,58.594,58.594,0,0,1,10.473-1.169,31.617,31.617,0,0,1,3.364.18C346.445,717.194,352.136,719.023,355.43,725.168Zm-75.5,7.884c7.238-9.188,17.641-13.835,26.546-18.406,8.805-3.882,39.993-13.085,47.87,5.951a17.889,17.889,0,0,0-11.98-6.041,48.594,48.594,0,0,0-14.116,1A97.044,97.044,0,0,0,313,719.5c-8.166,2.938-16.123,7.479-23.82,11.886-5.081,2.908-10.283,5.981-14.995,10.432C274.815,739.213,277.49,736.155,279.926,733.052Zm24.349,15.124c-7.078-.075-16.3,1.319-23.351-.225-3.025-.66-4.872-1.559-5.88-2.638,3.824-.015,7.577-1.079,11.221-2.1l1.238-.345a126.557,126.557,0,0,1,26.965-4.512c2.166-.12,4.333-.195,6.509-.255a95.872,95.872,0,0,0,17.082-1.544,104.409,104.409,0,0,0,13.807-4.317,7.1,7.1,0,0,0,3.414-2.128,4.441,4.441,0,0,0,.339-.48C352.306,747.427,311.723,748.251,304.276,748.176ZM430.984,645.713c-1.1,4.257-4.413,8.409-6.19,12.111C420.811,666.1,417.167,674.7,413.214,683,406.844,696.36,398.229,714.5,387.447,720c-4.233,2.158-6.779,1.934-8.266.3a24.123,24.123,0,0,0,8.306-7.659,69.706,69.706,0,0,0,4.882-8.858l.24-.495c9.9-20.145,22.2-42.478,38.426-57.737C431.014,645.623,431,645.653,430.984,645.713Zm-39.544,56.3-.24.495a68.752,68.752,0,0,1-4.722,8.589,22.491,22.491,0,0,1-8.226,7.419,23.05,23.05,0,0,1,.749-8.978,112.414,112.414,0,0,1,5.7-17.462A102.742,102.742,0,0,1,397.889,669.5c9.344-12.141,20.526-20.954,32.446-25.826C413.873,659.1,401.443,681.671,391.44,702.011ZM379,699.073c2.037-13.01,5.411-24.117,11.631-33.71,6.669-7.884,14.316-12.636,22.393-16.383,3.6-1.679,10.223-5.966,14.825-6.61-11.351,5.111-21.943,13.82-30.908,25.451a104.832,104.832,0,0,0-13.458,23.053,115.368,115.368,0,0,0-5.85,17.9,1.161,1.161,0,0,1-.04.18C377.923,705.563,378.532,702.026,379,699.073ZM327.737,835.636c7.158-23.817,21.1-40.23,35.86-52.881,4.273-3.357,11.661-6.055,16.612-4.482-2.556,1.5-5.111,3-7.627,4.572a60.066,60.066,0,0,0-9.973,7.344,86.874,86.874,0,0,0-8.526,10.028c-3.434,4.482-6.978,9.1-10.2,14.119-3.993,6.22-7.517,13.04-10.932,19.65a145.945,145.945,0,0,0-8.3,18.107,60.205,60.205,0,0,0-2.865,11.152C322.206,855.166,326.169,840.822,327.737,835.636Zm-5.012,32.631a51.869,51.869,0,0,1,3.225-15.154,144.039,144.039,0,0,1,8.166-17.792c3.384-6.565,6.888-13.34,10.832-19.47,3.175-4.946,6.7-9.533,10.113-13.985a83.437,83.437,0,0,1,8.346-9.818,59.036,59.036,0,0,1,9.754-7.165c3.035-1.889,6.12-3.717,9.185-5.516a6.378,6.378,0,0,1,1.837,2.143C364.206,811.2,343.57,840.687,322.795,869.2A3.552,3.552,0,0,1,322.725,868.267Zm61.737-75.723c-2.386,9.683-8.1,17.282-13.018,24.177-10.922,15.289-22.832,27.924-34.972,40.89-4.063,4.347-9.275,15.9-12.679,13.1,20.665-28.344,41.211-57.692,61.118-87.265C385.48,785.678,385.43,788.631,384.462,792.543Zm76.3-73.955c-10.423,12.711-21.085,24.657-32.636,34.984-3.913,3.507-8.356,8.858-12.749,10.3-1.957.645-5.311,1.514-7.917.315,12.519-15,26.805-26.9,40.632-38.4,6.849-5.7,13.927-11.586,20.715-17.792a39.9,39.9,0,0,0,6.11-6.6C472.635,707.5,463.909,714.736,460.764,718.588Zm14.955-21.974c-1.757,3.822-4.423,6.55-7.667,9.518-6.769,6.175-13.837,12.066-20.665,17.747-13.937,11.6-28.353,23.577-40.992,38.791a3.448,3.448,0,0,1-.449.45,6.025,6.025,0,0,1-.9-1.274c2.985-8.544,7.907-15.394,13.148-22.2,5.111-6.64,10.622-13.595,16.782-19.171,6.26-5.681,13.028-9.833,19.587-13.835,6.759-4.137,13.727-8.364,21.075-10.672C475.67,696.15,475.689,696.39,475.719,696.615Zm-62.566,40.5A122.314,122.314,0,0,1,462.342,697.8c2.715-1.169,8.516-4.287,11.531-3.522-7.008,2.458-13.8,6.6-19.887,10.327-6.6,4.047-13.428,8.214-19.787,14-6.25,5.681-11.81,12.7-16.972,19.4-5.092,6.61-9.923,13.28-13.048,21.539a10.81,10.81,0,0,1-.29-1.154C403.2,752.748,411.017,740.472,413.154,737.115Z" transform="translate(-241.81 -161.442)" fill="#e4e4e4"/>
</svg>
