<svg xmlns="http://www.w3.org/2000/svg" width="241.126" height="715.016" viewBox="0 0 241.126 715.016">
  <path id="Trazado_152" data-name="Trazado 152" d="M887.006,523.916a42.2,42.2,0,0,1,5.241-9.2c6.13,9.353,16.552,6.43,23.77.24,9.1-7.794,15.724-21.1,22.772-32.406,5.461-8.769,16.053-18.541,18.988-29.588a1.621,1.621,0,0,0-.449-1.2c-9.744-11.5-26.276,2.713-35.321,9.308-12.22,8.888-35.1,23.8-31.867,48.5-.809.944-1.577,1.964-2.316,3.013,1.328-20.52,1.677-41.145,1.078-61.71a2.052,2.052,0,0,0,.17-.42A60,60,0,0,1,895.521,432c3.025,4.017,8.805,3.882,14.256-.719,8.136-6.865,12.5-19.006,17.1-30.772,4.043-10.342,9.394-19.246,13.527-29.333,1.627-3.987,3.015-9.113-.01-12.426-3.444-3.762-8.636,1.6-11.661,3.6-6.5,4.287-11.96,7.659-16.972,15.574-6.719,10.6-11.481,23.892-16.542,36.288a1.81,1.81,0,0,0-.08.39c-.03.075-.08.1-.1.18a29.2,29.2,0,0,0-1.557,11.392c-.01.015-.02.015-.02.03a55.348,55.348,0,0,0-5.131,10.163q-.883-17.132-2.636-34.145c0-.06.03-.1.03-.18-.25-9.158-.06-18.9,2.765-27.19a7.787,7.787,0,0,0,5.94.764c8.586-1.993,13.038-14.075,15.414-25.271,3.294-15.529,6.05-29.648,12.719-42.883,4.223-8.409,6.5-17.792-3.245-14.449-16.333,5.606-32.755,35.659-36.908,59.116-.739,7.1.04,14.389,2.616,18.976a48.834,48.834,0,0,0-2.166,7.749c-2.855-20.355-6.679-40.425-11.431-60.091a2.625,2.625,0,0,0,.05-.764,51.117,51.117,0,0,1,2.835-23.038c2.426,4.737,6.17,8.154,10.073,8.619,8.466,1,13.747-9.1,17.381-19.1,2.955-8.154,4.852-16.953,8.6-24.462,2.1-4.212,5.621-7.629,7.268-12.231-.01-.12-.01-.225-.02-.33-4.882-11.541-27.045,6.415-31.627,9.488-8.056,5.756-16.343,14.779-14.206,30.038.08.555.18,1.109.289,1.649a47.25,47.25,0,0,0-4.552,14.854q-3.28-12.164-7.038-24.057c0-.015-.01-.03-.02-.03,19.817-11.526-20.226-105.088-34.852-116.524-.958-1.064-3.484-2.024-3.834-.794-2.5,8.634,5.551,29.228,7.577,37.787q6.02,25.429,12.05,50.843c2.436,10.148,5.89,30.2,15.454,29.783,1.887,6.041,3.7,12.126,5.4,18.272a14.236,14.236,0,0,0-7.048-2.113c-3.674-10.507-9.584-19.381-17.93-19.126-5.551.165-11.062,3.582-16.073,6.88-3.035,1.994-11.661,6.7-12.849,12.216-.889,4.107.958,5.336,3.314,6.535,6.978,3.522,15.165,3.013,22.393,6.235,6.729,3,25.487,15.064,22.712-7.689l-.27-.944c2.7.18,5.131,1.559,7.368,4.032a617.459,617.459,0,0,1,14.266,69.7,27.327,27.327,0,0,1-3.923-6.28c-.01-.03-.05-.06-.07-.09,5.99-12.965-7.947-26.081-19.567-33.545-.06-.06-.13-.12-.19-.18l-.02.045a56.14,56.14,0,0,0-11.1-5.7c-1.817-.6-6.679-2.608-7.857.944-1.518,4.572,9.324,15.888,11.121,18.856,6.19,10.207,14.216,32.766,25.617,22.723a25.779,25.779,0,0,0,6.569,7.345q1.587,11.377,2.765,22.873v.03c0,.015.01.015.01.03q1.258,12.276,2.067,24.627a58.509,58.509,0,0,0-7.807-6.235,35.311,35.311,0,0,0-1.7-13.07c-2.586-6.835-8.176-10.3-12.459-14.12-6.459-5.771-11.93-8.649-19.557-9.173-3.624-.24-11.091-2.443-14.206,1.694a1.363,1.363,0,0,0-.16.884c.849,4.257,5.92,7.195,8.156,9.743,7.138,8.139,12.689,16.443,18.719,26.351,4.433,7.27,12.419,16.218,18.769,8.034a17.152,17.152,0,0,0,1.867-5.351c3.314,2.338,6.789,4.737,8.855,9.308a655.605,655.605,0,0,1-1.188,87.236c-.24-.779-.459-1.559-.719-2.323a1.606,1.606,0,0,0-.1-.18c2.985-9.728-.839-27.94-3.514-35.449-9.324-22.978-22.432-31.282-40.143-32.061-2.166-.09-7.757-1.124-7.9,4.077-.07,2.593,2.616,5.081,3.594,6.49a174.72,174.72,0,0,1,11.671,19.306c7.727,14.869,13.787,43.3,28.692,44.008a6.486,6.486,0,0,0,4.912-1.739,82.355,82.355,0,0,1,2.276,11.137c-1.737,17.072-4.163,34.04-7.278,50.768a36.18,36.18,0,0,0-2.286-3.687c-.479-18.616-11.091-25.167-21.923-30.173-12.339-5.7-31.777-11.946-44.076-3.732a.848.848,0,0,0-.389.929l.15,1.889c.05.7.938,1.319,1.308,1.514,8.945,4.572,17.311,8.859,25.627,15.888,6.849,5.786,12.908,14.254,20.027,19.306,5.95,4.227,14.246,8.109,18.04-.27a19.145,19.145,0,0,1,2.047,6c-2.476,12.351-5.3,24.6-8.546,36.648-2.476,9.218-5.241,18.227-8.126,27.115a30.981,30.981,0,0,0-2.456-7c2.706-3.552,3.384-9.113-.09-17.042-5.321-12.156-19.7-20.76-28.163-26.246-6.319-4.092-22.263-14.7-29.131-8.559a1.5,1.5,0,0,0-.31,1.724c2.955,9.593,12.4,14.6,17.281,21.554,6.23,8.9,10.433,20.25,16.982,28.659l.01.015c.08.1.16.225.25.345a.28.28,0,0,0,.08.06,3.5,3.5,0,0,0,.3.375c4.862,4.542,14.376,5.486,20.186,1.559a35.59,35.59,0,0,1,1.737,14.719,494.944,494.944,0,0,1-25.967,61.155,33.488,33.488,0,0,0-1.038-3.747c5.8-12.786-8.316-53.391-13.557-61.365a1.135,1.135,0,0,0-.13-.135,2.65,2.65,0,0,0-.23-.39c-9.424-11.242-20.7-16.788-32.246-21.135-4.293-1.619-14.326-8.933-18.08-2.443a2.67,2.67,0,0,0,.16,2.368c8.556,19.126,17.99,39.3,27.943,56.913,6.839,12.1,16.462,26.216,27.254,29.528a8.206,8.206,0,0,0,5.691.06,29.51,29.51,0,0,1,.739,7.3,430.088,430.088,0,0,1-23.6,39.331,43.886,43.886,0,0,0-1.128-6.085c5.81-9.083-5.012-26.261-8.845-32.316-13.168-18.017-30.419-30.787-47.261-39.2-4.752-2.368-20.745-12.531-25.737-4.3a1.193,1.193,0,0,0-.15.839c1.717,6.4,5.93,10.447,9.374,14.734,7.448,9.278,14.955,18.556,22.692,27.28,9.354,10.537,19.4,20.415,29.9,28.239,3.564,2.653,11.211,8.948,16.493,7.524a41.245,41.245,0,0,1,.719,8.739,3,3,0,0,0,.06.33c-22.752,32.5-49.008,59.581-77.72,79.891-1.667,1.184,2.186,3.792,3.364,2.953,31.118-22.019,59.311-51.967,83.371-88.075a1.379,1.379,0,0,0,.25,0,7.738,7.738,0,0,1,6.21,1.709c-3.564,6.8,1.158,20.19,5.291,27.685,10.383,18.781,24.439,33.95,37.737,47.695,6.809,7.03,17.451,25.242,26.745,24.312.16-.015.659-.03.729-.4,2.955-16.068-6-42.644-12.11-55.144-7.987-16.353-18.948-28.254-30.569-38.222-6.06-4.766-14.306-10.912-21.4-10.058a8.342,8.342,0,0,0-5.032,2.248,15.666,15.666,0,0,0-6.05-2.488,439.2,439.2,0,0,0,25.817-45.177h.03a29.745,29.745,0,0,1,7.3-2.173c.18,15.259,23.491,23.682,30.14,24.972,11.461,2.218,23.81,1.349,35.361.809,3.574-.165,20.306,4.826,23.78-2.338,7.338-15.124-30.349-33.5-34.9-35.854a1.565,1.565,0,0,0-.24-.09,2.377,2.377,0,0,0-.309-.18c-9.614-4.287-19.477-7.015-29.551-5.771-6.23.764-18.15,1.934-22.243,10.208a20.142,20.142,0,0,0-1.667,4.662,18.484,18.484,0,0,0-5.2.659,501.585,501.585,0,0,0,21.864-53.091.321.321,0,0,0,.16-.225c.01-.09,0-.18.01-.27,1.248-3.582,2.486-7.165,3.664-10.807a17.977,17.977,0,0,0,5.71-1.709c.908,16.053,14.206,18.811,23.371,16.563,11.241-2.758,21.065-12.471,30.759-20.79,5.621-4.811,11.2-9.248,17.4-12.156,5.571-2.623,11.351-1.919,16.742-5.2.04-.03.01-.09-.05-.195a.258.258,0,0,0,.14-.285c-4.682-16.623-32.755-19.89-42.868-19.875-16.153.03-42.709,6.49-45.354,36.543a17.407,17.407,0,0,1-4.363,2.4c1.627-5.2,3.225-10.447,4.722-15.768q5.84-20.8,10.123-42.254a1.939,1.939,0,0,0,.1-.465c.359-1.814.7-3.627,1.048-5.456a22.183,22.183,0,0,1,7.458-4.961c.289.48.6.944.938,1.409,3.714,5.036,9.025,7.375,13.977,6.64,9.993-1.469,18.259-14.135,24.868-24.342,4.1-6.34,7.907-13.535,12.7-18.751,2.546-2.773,8.925-4.587,9.374-9.473a1.2,1.2,0,0,0-.509-.869c-5.161-4.107-12.06-3.028-17.661-2.653-13.747.944-25.348,8.469-36.9,19.2-5.511,5.756-11.161,15.169-8.765,24.237a21.974,21.974,0,0,0-4.113,2.113C882.942,562.617,885.408,543.326,887.006,523.916ZM939.748,472.5c-4.093,6.355-8.007,12.935-12.01,19.426-5.611,9.083-22.5,36.378-31.737,22.618a3.4,3.4,0,0,0,.948.21c.13,0,.26.015.389.015a8.418,8.418,0,0,0,5.022-1.754,21.408,21.408,0,0,0,2.6-2.4c8.5-8.829,16.522-18.991,24.289-28.824,2.3-2.893,4.582-5.8,6.889-8.679a127.4,127.4,0,0,1,11.73-13.19l.439-.4a26,26,0,0,0,2.855-3C949.571,460.767,941.495,469.791,939.748,472.5Zm9.3-18.362a2.387,2.387,0,0,1,1.907-.315,17.938,17.938,0,0,1-3.414,3.837l-.449.42a125.392,125.392,0,0,0-11.89,13.355c-2.306,2.878-4.6,5.786-6.9,8.679-7.737,9.788-15.744,19.92-24.18,28.7a18.825,18.825,0,0,1-2.406,2.233A7.349,7.349,0,0,1,897,512.584a1.539,1.539,0,0,1-1.218-.525,22.592,22.592,0,0,1,3.754-10.447,108.851,108.851,0,0,1,7.218-9.158c1.677-1.979,3.414-4.017,5.062-6.16.719-.929,1.418-1.889,2.116-2.848,1.448-1.963,2.935-4,4.513-5.756a59.227,59.227,0,0,1,8.865-7.644l11.321-8.5C942.014,459,945.508,456.36,949.052,454.142ZM914.1,473.118c2.077-1.889,24.389-18.721,33.5-20.385-3.275,2.129-6.509,4.512-9.634,6.865l-11.321,8.5a61.153,61.153,0,0,0-9.075,7.839,73.91,73.91,0,0,0-4.622,5.906c-.689.944-1.388,1.889-2.086,2.8-1.617,2.113-3.344,4.137-5.012,6.1a109.265,109.265,0,0,0-7.338,9.308,25.01,25.01,0,0,0-4.073,11.137C891.638,492.319,904.846,481.527,914.1,473.118Zm16.512-93.1c-2.725,5.7-5.191,11.586-7.557,17.627-2.5,6.4-4.872,13.16-8.007,18.931-2.166,3.987-5.022,8.888-8.356,10.687a5.206,5.206,0,0,1-3.4.63c.709-.884,1.378-1.829,2-2.773,4.962-7.554,9.294-16.128,13.487-24.417,4.123-8.154,8.386-16.593,13.218-24,.529-.809,1.068-1.619,1.607-2.413.679-1,1.358-2.024,2.027-3.073C934.187,374.326,931.581,378,930.613,380.022Zm6.09-13.865c-1.278,2.323-2.705,4.482-4.123,6.58-.549.809-1.088,1.619-1.627,2.443-4.9,7.494-9.185,15.993-13.338,24.207-4.163,8.244-8.466,16.758-13.358,24.207a27.573,27.573,0,0,1-2.735,3.6,6.2,6.2,0,0,1-2.186-2.773,19.727,19.727,0,0,1,2.276-6.46c1.907-3.717,3.973-7.375,5.96-10.9,2.456-4.362,5-8.858,7.3-13.55.559-1.139,1.1-2.278,1.637-3.432a78.178,78.178,0,0,1,5.76-10.732,56.321,56.321,0,0,1,9.574-10.058c1.557-1.379,3.125-2.833,4.662-4.347A3.705,3.705,0,0,1,936.7,366.157Zm-37.537,50.693c5.341-13.115,10.443-28.374,18.22-38.672,3.714-4.916,7.867-7.33,12.3-10.312,1.228-.824,3.294-2.878,4.872-3.567-1.138,1.079-2.3,2.1-3.434,3.118a57.431,57.431,0,0,0-9.844,10.372,79.626,79.626,0,0,0-5.94,11.032c-.539,1.139-1.078,2.278-1.627,3.4-2.266,4.632-4.792,9.1-7.238,13.43-2.007,3.552-4.073,7.225-6,10.972a30.448,30.448,0,0,0-1.857,4.227A12.931,12.931,0,0,1,899.165,416.849Zm11.121-165.9a9.976,9.976,0,0,1,.859-.914c-.829,1.589-2.4,3.537-3.115,4.8a70,70,0,0,0-5.161,11.377c-3.714,10.477-7.228,30.982-16.353,33.665a6.21,6.21,0,0,1-7.018-2.188c.01,0,.01,0,.02.015a2.34,2.34,0,0,0,.569.06,4.425,4.425,0,0,0,2.216-.719c2.666-1.574,5.091-4.826,7.4-9.923.7-1.544,1.338-3.133,1.987-4.721a79.012,79.012,0,0,1,3.265-7.315c.649-1.214,1.358-2.353,2.057-3.507.539-.869,1.078-1.754,1.6-2.668.669-1.169,1.3-2.4,1.937-3.627a42.7,42.7,0,0,1,4.033-6.8c.449-.57.918-1.109,1.4-1.649.609-.689,1.228-1.379,1.8-2.158.409-.555.8-1.169,1.188-1.769C909.378,252.241,909.818,251.566,910.287,250.952Zm-2.386.45c-.369.57-.729,1.139-1.118,1.664-.539.734-1.118,1.379-1.7,2.038-.5.555-.988,1.124-1.468,1.724a45.943,45.943,0,0,0-4.233,7.135c-.619,1.2-1.238,2.4-1.887,3.537-.5.884-1.028,1.739-1.557,2.593-.729,1.184-1.458,2.368-2.126,3.612a78.726,78.726,0,0,0-3.374,7.539c-.629,1.559-1.268,3.118-1.947,4.632-2.136,4.722-4.343,7.7-6.729,9.128a2.829,2.829,0,0,1-2.047.525,2.593,2.593,0,0,1-2.126-2.248c-.569-2.968.06-6.475,1.937-10.7,4.263-9.638,10.682-16.548,15.8-21.494a83.889,83.889,0,0,1,13.238-10.717C908.35,250.712,908.13,251.057,907.9,251.4ZM877.282,274.05c2.506-6.97,7.557-11.212,12.13-14.464,5.411-3.627,11.311-7.974,17.261-10.312a88.676,88.676,0,0,0-12.13,10c-5.241,5.051-11.81,12.141-16.223,22.124a27.371,27.371,0,0,0-2.176,7.36A33.027,33.027,0,0,1,877.282,274.05Zm-40.822-86.8c4.283,8.589,8.336,17.387,12.15,26.471a215.2,215.2,0,0,1,9.324,25.451,101.116,101.116,0,0,1,3.255,16.293c.889,7.854,1.8,10.312-1.687,12.111,0-.165-.01-.345-.01-.51a99.393,99.393,0,0,0-.839-12.261,84.415,84.415,0,0,0-3.095-12.306,674.406,674.406,0,0,0-26.466-71.063C832.018,176.861,834.663,183.636,836.46,187.248Zm17.79,56.164a81.564,81.564,0,0,1,2.995,11.871,97.764,97.764,0,0,1,.809,11.871c.01.36,0,.689.01,1.049-.389.15-.819.3-1.278.45-1.028-2.8-2.067-5.621-3.085-8.319-1.607-4.257-3.275-8.679-4.862-13.19-1.288-3.672-2.606-7.465-3.624-11.362-.609-2.353-1.128-4.826-1.627-7.21l-.559-2.638c-2.785-12.891-6.679-25.316-10.453-37.338l-4.622-14.7c-.449-1.409-.888-2.773-1.258-4.167A669.848,669.848,0,0,1,854.25,243.412ZM847.322,259.2c-1.258-4.871-2.336-9.848-3.5-14.764q-3.5-14.772-7-29.528-3.2-13.49-6.4-27c-.639-2.713-2.047-6.895-3.185-11.2l4.023,12.816c3.754,11.961,7.637,24.327,10.393,37.083l.549,2.623c.509,2.413,1.028,4.916,1.657,7.345,1.038,4,2.386,7.854,3.684,11.572,1.587,4.557,3.265,8.978,4.882,13.25.938,2.488,1.887,5.111,2.835,7.689C848.6,270.9,849.588,267.979,847.322,259.2ZM830.4,283.672c8.086-4.152,14.057-.989,18.269,6.8A20.89,20.89,0,0,0,843.738,287a24.881,24.881,0,0,0-12.459-2.173,15.03,15.03,0,0,0-4.453.794c-.439.165-.869.375-1.3.585C827.595,285.081,829.412,284.2,830.4,283.672Zm-13.278,9.338a31.268,31.268,0,0,1,3.634-1.964c.759-.36,1.528-.734,2.276-1.139.409-.225.819-.465,1.218-.69a18.329,18.329,0,0,1,2.925-1.484,13.655,13.655,0,0,1,4.153-.719c.619-.03,1.218-.045,1.807-.045a22.837,22.837,0,0,1,10.153,2.128,20.608,20.608,0,0,1,7.787,6.82c.31.839.6,1.709.879,2.608-.03-.015-.07-.015-.1-.03-6.369-1.9-13.148-3.822-19.927-4.512a41.27,41.27,0,0,0-17.95,1.979A12.361,12.361,0,0,1,817.122,293.011Zm10.023,10.942c-2.2-.734-4.413-1.394-6.639-1.934-3.235-.779-6.479.869-6.809-3.672a40.465,40.465,0,0,1,18.12-2.218c6.7.689,13.428,2.593,19.747,4.482a9.82,9.82,0,0,0,1.048.195C854.869,319.691,833.106,305.961,827.146,303.953Zm26.066,49.868a117.56,117.56,0,0,0-9.294-14.584c-1.038-1.409-3.953-3.807-4.253-6.475a41.4,41.4,0,0,1,9.9,9.788A147.078,147.078,0,0,1,859.7,358.857a47.329,47.329,0,0,0,5.341,8.214,17.916,17.916,0,0,0,2.586,2.383C860.959,374.1,856.487,359.951,853.212,353.821Zm15.844,14.165a15.262,15.262,0,0,1-3.135-2.653,44.246,44.246,0,0,1-5.032-7.749,148.289,148.289,0,0,0-10.353-16.668A42.586,42.586,0,0,0,840.1,330.678c.909-.794,3.854.63,4.523.884a37.782,37.782,0,0,1,5.181,2.563c1.318.764,3.095,1.889,5.062,3.283a61.445,61.445,0,0,1,10.313,12.1,36.581,36.581,0,0,1,5.261,15.708A14.7,14.7,0,0,1,869.056,367.986Zm2.276-6.97a39.987,39.987,0,0,0-5.082-12.965c-.2-.33-.429-.6-.639-.929C869.066,351.288,871.551,356.069,871.332,361.016Zm-1.907,66.7c-5.481,7.075-20.646-22.079-24.469-26.755-2.8-3.417-5.8-6.43-8.665-9.728-.789-.914-1.6-1.6-2.1-2.218a66.617,66.617,0,0,1,13.288,9.353,107.45,107.45,0,0,1,10.4,12.081c3.484,4.467,7.078,9.1,11.081,12.741a4.527,4.527,0,0,0,2.007,1.049A16.945,16.945,0,0,1,869.425,427.717Zm2.1-5.516a3.019,3.019,0,0,1-1.807-.854A102.437,102.437,0,0,1,858.823,408.8a107.17,107.17,0,0,0-10.572-12.276,68.559,68.559,0,0,0-13.717-9.638,8.374,8.374,0,0,1,3.953-.63c4.612,1.424,8.965,4.512,13.168,7.569a44.161,44.161,0,0,1,8.845,7.794,61.842,61.842,0,0,1,5.022,7.779l5.661,9.788c.22.39.429.779.609,1.154A16.5,16.5,0,0,1,871.521,422.2Zm-4.892-14.21a61.516,61.516,0,0,0-5.2-8.034,45.316,45.316,0,0,0-9.135-8.079c-2.266-1.649-4.572-3.328-6.938-4.751,1.278.27,2.316.54,2.865.719,5.171,1.754,9.724,5.876,14.216,9.893,4.2,3.747,8.985,11.392,9.454,19.351Zm51.224-101.355c-5.86,12.216-8.805,25.226-11.68,39.466-1.5,7.4-4.223,21.374-9.923,23.892a9.327,9.327,0,0,1-3.874.914,19.939,19.939,0,0,0,3.115-4.961,54.854,54.854,0,0,0,3.225-8.724c1.088-3.627,2.116-7.3,3.145-10.957,2.106-7.495,4.293-15.259,6.909-22.513,3.983-11.077,8.216-19.036,13.168-24.732C920.56,301.914,918.293,305.721,917.854,306.636Zm2.726-8.814c-4.912,5.846-9.125,13.865-13.088,24.882-2.646,7.345-4.842,15.154-6.968,22.708-1.028,3.642-2.057,7.3-3.135,10.912a51.676,51.676,0,0,1-2.975,8.154c-1.248,2.488-2.706,5.4-4.433,5.441-.23,0-.489-.42-.569-.914a7.682,7.682,0,0,1,.15-2.278c4.083-24.927,13.508-47.815,26.536-64.438A19.769,19.769,0,0,1,920.58,297.822Zm-33.963,56.014a95.835,95.835,0,0,1,20.546-44.1c.509-.615,3.564-4.137,6.859-7.524-12.649,16.788-21.834,39.391-25.867,64a14.337,14.337,0,0,0-.2,1.949C886.2,365,886.027,359.532,886.616,353.836ZM863.784,512.524c-5.531-9.173-9.015-21.509-14.116-31.342-2.406-4.632-4.972-9.083-7.637-13.385-2.316-3.732-5.321-6.76-5.032-9.113a4.557,4.557,0,0,0,.559,1.244,43.5,43.5,0,0,0,5.73,6.7c1.258,1.274,2.556,2.593,3.734,4.017,3.913,4.737,6.908,11.152,9.8,17.342l.509,1.094c4.263,9.1,8.975,18.661,14.546,27.055a13.74,13.74,0,0,0,3.484,3.972,3.367,3.367,0,0,0,.429.21C873.448,523.181,869.595,522.147,863.784,512.524Zm14.166.615-.05,2.128a17.2,17.2,0,0,1-.958,3.1,1.5,1.5,0,0,1-1.008-.255,12.247,12.247,0,0,1-3.035-3.522c-5.491-8.259-10.153-17.747-14.376-26.77l-.509-1.079c-2.955-6.31-6.01-12.846-10.083-17.777-1.228-1.484-2.556-2.833-3.834-4.122a41.154,41.154,0,0,1-5.511-6.415,2.887,2.887,0,0,1-.4-1.064c7.957.315,15.934,4.167,22.562,10.927,6.819,6.955,12.319,17.132,15.494,28.659a46.911,46.911,0,0,1,1.587,8.064A70.992,70.992,0,0,1,877.951,513.139Zm-.359-17.027c-3.284-11.9-8.965-22.423-16.013-29.633-6.03-6.16-13.158-9.968-20.4-11,.21-.06.389-.135.629-.195,13.817-3.732,26.316,12.291,32.815,28.3a67.551,67.551,0,0,1,3.394,14.314C877.861,497.3,877.761,496.756,877.591,496.111Zm-44.176,69.054c-5.9-4.781-13.448-7.24-18.958-12.456a6.461,6.461,0,0,1-.9-1.034l15.264,6.3a70.333,70.333,0,0,1,12.2,6,87.721,87.721,0,0,1,11.421,9.683c4.353,4.122,8.855,8.394,13.777,11.152.06.03.1.03.16.06C859.881,592.85,838.387,569.2,833.415,565.165Zm33.324,17.582c-4.782-2.683-9.225-6.88-13.508-10.942a89.565,89.565,0,0,0-11.611-9.833,70.156,70.156,0,0,0-12.4-6.1l-15.544-6.415c.908-.689,2.8-1.019,5.151-1.109a83.648,83.648,0,0,1,27.584,10.193,50.769,50.769,0,0,1,12.439,9.353,36.491,36.491,0,0,1,5.95,8.559,27.855,27.855,0,0,1,2.346,6.475A1.78,1.78,0,0,1,866.739,582.747Zm-.789-7.614a38.9,38.9,0,0,0-6.27-9.023,51.771,51.771,0,0,0-12.769-9.608,94.733,94.733,0,0,0-17.071-7.614c3.634.39,6.579.854,7.178.989,12.03,2.728,29.79,8.034,30.779,29.663A36.844,36.844,0,0,0,865.951,575.133ZM812.78,603.627c11.251,4.347,21.913,13.19,31.557,22.783,5.5,5.471,7.028,11.661,6.15,16.593a31.017,31.017,0,0,0-3.574-8.559,47.272,47.272,0,0,0-7.288-8.814,122.329,122.329,0,0,0-33.175-23.877A38.347,38.347,0,0,1,812.78,603.627Zm20.945,45.132c-6.549-8.394-10.8-19.755-17-28.689-2.705-3.9-5.84-6.685-8.616-10.327a11.192,11.192,0,0,1-3.554-3.7c.289.255.579.51.878.764,9.324,7.974,18.03,17.957,26.456,27.61,2.336,2.668,4.662,5.351,7.008,7.974a46.627,46.627,0,0,0,7.517,7.255,3.735,3.735,0,0,0,.389.225C843.5,652.836,838.586,653.211,833.725,648.759Zm13.308-1.064a45.486,45.486,0,0,1-7.268-7.03c-2.346-2.623-4.672-5.291-7-7.959-8.456-9.7-17.2-19.725-26.616-27.775-.819-.7-1.627-1.409-2.416-2.188a119.857,119.857,0,0,1,35.081,24.687,45.506,45.506,0,0,1,7.018,8.484,27.856,27.856,0,0,1,3.734,10.043,11.279,11.279,0,0,1-1.348,2.368A4.883,4.883,0,0,1,847.032,647.695ZM737.256,697.773a122.188,122.188,0,0,1,49.188,39.316c2.136,3.372,9.953,15.633,9.255,21.269a8.835,8.835,0,0,1-.289,1.154c-3.125-8.274-7.947-14.929-13.048-21.539-5.161-6.7-10.722-13.715-16.972-19.4-6.359-5.771-13.188-9.953-19.787-14-6.09-3.732-12.879-7.869-19.887-10.327C728.74,693.486,734.53,696.6,737.256,697.773Zm46.972,66.071c-4.4-1.439-8.835-6.8-12.749-10.3-11.551-10.312-22.213-22.274-32.635-34.984-3.145-3.837-11.87-11.092-14.156-17.192a39.9,39.9,0,0,0,6.11,6.6c6.789,6.206,13.877,12.1,20.715,17.792,13.827,11.5,28.123,23.4,40.632,38.4C789.538,765.343,786.184,764.489,784.227,763.844Zm8.985-1.2c-12.649-15.214-27.055-27.2-40.992-38.791-6.839-5.681-13.907-11.571-20.665-17.747-3.245-2.968-5.91-5.7-7.667-9.518a4.326,4.326,0,0,1,.11-.66c7.338,2.293,14.316,6.535,21.075,10.672,6.549,4,13.318,8.154,19.587,13.835,6.16,5.591,11.661,12.531,16.782,19.171,5.241,6.8,10.163,13.67,13.148,22.2a6.028,6.028,0,0,1-.9,1.274A2.244,2.244,0,0,1,793.212,762.645Zm69.9,94.94c-12.14-12.966-24.05-25.586-34.972-40.89-4.922-6.895-10.622-14.479-13.018-24.177-.968-3.912-1.018-6.88-.449-9.1,19.907,29.573,40.453,58.922,61.118,87.266C872.4,873.489,867.189,861.917,863.115,857.585ZM836,782.73c14.755,12.651,28.7,29.064,35.86,52.881,1.557,5.186,5.531,19.531,5.94,27.61a60.2,60.2,0,0,0-2.865-11.152,146.5,146.5,0,0,0-8.3-18.107c-3.4-6.61-6.928-13.445-10.932-19.65-3.225-5.006-6.769-9.638-10.2-14.12a85.91,85.91,0,0,0-8.526-10.028,61.376,61.376,0,0,0-9.973-7.345c-2.516-1.574-5.072-3.073-7.627-4.572C824.34,776.675,831.728,779.373,836,782.73Zm-18.729-3.4c3.065,1.784,6.16,3.612,9.185,5.516a59.888,59.888,0,0,1,9.754,7.165,84.673,84.673,0,0,1,8.346,9.818c3.4,4.452,6.928,9.038,10.113,13.985,3.943,6.13,7.438,12.92,10.822,19.471a145.052,145.052,0,0,1,8.166,17.792,52.2,52.2,0,0,1,3.225,15.154,5.131,5.131,0,0,1-.06.9c-20.775-28.509-41.411-57.977-61.387-87.685A6.73,6.73,0,0,1,817.272,779.328Zm-30.7-130.374c8.076,3.747,15.724,8.484,22.393,16.383,6.22,9.593,9.594,20.7,11.631,33.71.459,2.953,1.078,6.49,1.408,9.878-.01-.06-.03-.12-.04-.18a115.367,115.367,0,0,0-5.85-17.9,104.835,104.835,0,0,0-13.458-23.053c-8.965-11.646-19.567-20.355-30.908-25.451C776.35,643,782.969,647.29,786.573,648.954Zm25.577,71.018c-10.782-5.5-19.4-23.638-25.767-36.993-3.953-8.289-7.607-16.908-11.591-25.181-1.787-3.7-5.1-7.854-6.2-12.111-.01-.06-.03-.09-.04-.15,16.223,15.244,28.512,37.592,38.426,57.738l.24.495a70.936,70.936,0,0,0,4.882,8.858,24.211,24.211,0,0,0,8.306,7.659C818.939,721.905,816.384,722.145,812.151,719.972Zm9.195-1.5a22.36,22.36,0,0,1-8.226-7.42,67.508,67.508,0,0,1-4.722-8.589l-.24-.495c-10-20.34-22.432-42.9-38.885-58.352,11.92,4.856,23.1,13.67,32.446,25.826a102.8,102.8,0,0,1,13.188,22.573,111.885,111.885,0,0,1,5.7,17.462A23.337,23.337,0,0,1,821.345,718.473Zm71.78-3.852c8.905,4.572,19.308,9.218,26.546,18.406,2.446,3.1,5.112,6.161,5.74,8.769-4.712-4.467-9.923-7.524-14.995-10.432-7.7-4.407-15.654-8.948-23.82-11.886a95.425,95.425,0,0,0-15.245-3.942,49.066,49.066,0,0,0-14.117-1,17.8,17.8,0,0,0-11.98,6.041C853.132,701.535,884.32,710.738,893.125,714.621Zm-48.958,10.522c3.294-6.145,8.985-7.974,13.168-8.439a31.6,31.6,0,0,1,3.364-.18,57.254,57.254,0,0,1,10.472,1.169,96.4,96.4,0,0,1,15.085,3.9c8.077,2.908,15.983,7.42,23.64,11.8,4.832,2.758,9.814,5.606,14.286,9.713a42.6,42.6,0,0,1-10.572-2.068l-1.248-.36a127.574,127.574,0,0,0-27.175-4.542c-2.176-.12-4.353-.195-6.529-.255a94.842,94.842,0,0,1-16.9-1.529,103.737,103.737,0,0,1-13.667-4.272,6.2,6.2,0,0,1-2.845-1.694C844.487,727.481,843.838,725.757,844.167,725.143Zm.15,4.931a7.1,7.1,0,0,0,3.414,2.128,104.44,104.44,0,0,0,13.807,4.317,95.894,95.894,0,0,0,17.081,1.544c2.166.06,4.343.135,6.509.255a126.555,126.555,0,0,1,26.965,4.512l1.238.345a42.243,42.243,0,0,0,11.221,2.1c-1.008,1.079-2.855,1.979-5.88,2.638-7.048,1.544-16.273.15-23.351.225-7.448.075-48.03-.749-51.344-18.541A3.382,3.382,0,0,0,844.317,730.074Zm77.98-85.212c-10.552,8.154-21.694,22.423-33.8,24.6a25.51,25.51,0,0,1-5.541.42,16.015,16.015,0,0,0,5.3-1.694,33.127,33.127,0,0,0,6.04-4.587l17.641-15.544c3.634-3.208,7.4-6.52,11.4-8.709,6.659-3.627,14.017-4.122,20.955-3.987C936.982,638.177,929.584,639.226,922.3,644.862Zm-37.168-19.755c5.421-4.092,11.75-6.011,17.72-7.315a51.1,51.1,0,0,1,18.709-.9,38.142,38.142,0,0,1,19.677,7.225,40.406,40.406,0,0,0-8.3-3.1c-6.5-1.589-13.757-1.574-22.862.045-9.065,1.619-15.744,4.032-21.654,7.854a84.408,84.408,0,0,0-11.151,9.068c-1.2,1.109-2.4,2.278-3.524,3.537C876.413,634.789,880.576,628.539,885.129,625.106ZM871.991,646.87a30.858,30.858,0,0,1,6.04-7.03,82.974,82.974,0,0,1,10.962-8.918c5.78-3.732,12.329-6.1,21.255-7.689,8.965-1.589,16.1-1.6,22.462-.06a42.3,42.3,0,0,1,15.175,7.33c-.519-.18-1.038-.39-1.567-.615l-.719-.3a38.118,38.118,0,0,0-14.306-2.668,49.536,49.536,0,0,0-10.942,1.274c-8.705,1.964-17.231,6-24.409,9.668a72.058,72.058,0,0,0-10.233,6.07c-.948.7-1.9,1.454-2.845,2.2-3.294,2.623-6.7,5.321-10.343,5.7a3.071,3.071,0,0,1-1.478-.18A38.917,38.917,0,0,1,871.991,646.87Zm-1.178,6.97a3.791,3.791,0,0,0,1.268.21c.17,0,.349-.015.529-.03,3.953-.42,7.5-3.223,10.922-5.951.938-.749,1.867-1.484,2.805-2.173a70.1,70.1,0,0,1,10.063-5.951c7.128-3.642,15.564-7.644,24.16-9.578,9.045-2.038,17.341-1.589,24.669,1.334l.7.285a12.307,12.307,0,0,0,3.424,1.019l-.6.315c-8.286-.345-17.571-.585-25.927,3.972-4.133,2.248-7.947,5.621-11.641,8.873l-17.641,15.544a33.319,33.319,0,0,1-5.8,4.407c-3.754,2.023-7.8,2.023-11.96,1.574C871.811,664.917,870.423,659.746,870.813,653.84Zm55.427-95.72c-5.76,8.948-11.331,18.781-18.479,25.331-2.117,1.934-5.5,5.561-8.077,5.666-2.436.09-5.96-1.649-8.656-4.527a6.7,6.7,0,0,0,2.216.6c.15.015.31.015.459.015,2.456,0,4.792-1.274,6.579-2.4a40.953,40.953,0,0,0,6.419-5.021,102.5,102.5,0,0,0,9.854-11.482q1.587-2.046,3.185-4.047a140.972,140.972,0,0,1,17.67-18.406c.439-.39.9-.749,1.348-1.094C934.6,547.988,930.114,552.11,926.24,558.121Zm13.318-18.287a17.6,17.6,0,0,0-2.9,2.143,142.287,142.287,0,0,0-17.87,18.616c-1.078,1.334-2.136,2.7-3.2,4.062a101.491,101.491,0,0,1-9.684,11.287,39.559,39.559,0,0,1-6.2,4.856c-1.767,1.109-4.083,2.368-6.419,2.218a6.247,6.247,0,0,1-5.261-4.242c-.15-.39.759-1.559,1.058-1.949a144.059,144.059,0,0,1,19.737-20.61q2.86-2.5,5.78-4.826a67.274,67.274,0,0,1,13.138-8.679A28.77,28.77,0,0,1,939.558,539.834ZM887.2,574.728c.569-7.494,5.431-13.4,9.225-17.372,10.812-10.058,25.817-21.794,39.314-19.321a31.917,31.917,0,0,0-8.416,2.593,68.315,68.315,0,0,0-13.388,8.843c-1.967,1.574-3.9,3.193-5.83,4.871a146.322,146.322,0,0,0-19.907,20.775,11.446,11.446,0,0,0-.988,1.409A12,12,0,0,1,887.2,574.728Z" transform="translate(-716.671 -161.505)" fill="#e4e4e4"/>
</svg>
